<svg width="208" height="138" viewBox="0 0 208 138" fill="none" xmlns="http://www.w3.org/2000/svg">
<g clip-path="url(#clip0_1688_3581)">
<path d="M199.337 91.9419C197.839 93.5784 195.982 94.7966 193.966 95.7425H193.963C193.774 95.8325 193.584 95.92 193.392 96.0027H193.39L193.387 96.0051L193.385 96.0027H193.382L193.382 96.0037L193.382 96.0045L193.381 96.005L193.38 96.0051H193.377L193.375 96.0027C193.373 96.0051 193.373 96.0051 193.37 96.0027L193.368 96.0051L193.365 96.0027H193.363C193.36 96.0051 193.36 96.0051 193.358 96.0027H193.356C192.006 96.5863 190.621 97.0818 189.207 97.486C180.896 99.8439 172.16 100.3 163.648 98.821C163.486 98.7918 163.325 98.7626 163.162 98.7334V79.0105C163.323 78.9424 163.486 78.8744 163.648 78.8087C164.711 78.3686 165.787 77.9641 166.875 77.5953C168.441 77.0604 170.029 76.6016 171.639 76.219C176.89 74.9479 182.309 74.5098 187.697 74.9205C188.677 74.9935 189.655 75.0989 190.63 75.2367C192.67 75.5212 194.81 76.0172 196.692 76.878H196.694C196.969 77.0069 197.239 77.1406 197.506 77.2841C199.179 78.1911 200.59 79.4385 201.45 81.1479C201.76 81.7619 201.982 82.4157 202.112 83.0908V83.0957C202.16 83.3291 202.194 83.565 202.221 83.7984C202.528 86.6774 201.334 89.7583 199.337 91.9419Z" fill="#F2F2F2"/>
<path d="M202.221 83.7984C202.197 83.8044 202.173 83.8076 202.148 83.8081C197.983 83.9905 193.823 84.2612 189.669 84.6203H189.662C189.645 84.6227 189.63 84.6227 189.613 84.6252C185.348 84.9948 181.092 85.4576 176.845 86.0136C176.665 86.0379 176.487 86.0623 176.31 86.0841C173.373 86.4756 170.441 86.9101 167.515 87.3875C166.223 87.599 164.935 87.8195 163.648 88.0489C163.486 88.0781 163.325 88.1048 163.162 88.1364V87.3996C163.325 87.368 163.488 87.3413 163.648 87.3121C167.933 86.5534 172.232 85.8912 176.546 85.3255C177.63 85.1796 178.716 85.0418 179.804 84.9121C182.946 84.5328 186.092 84.2053 189.244 83.9297C189.475 83.9103 189.703 83.8908 189.934 83.8714C193.968 83.5285 198.008 83.2683 202.053 83.0908C202.073 83.0899 202.093 83.0916 202.112 83.0957C202.501 83.1297 202.584 83.7133 202.221 83.7984Z" fill="white"/>
<path d="M193.572 95.2861C188.383 95.3242 183.27 93.1239 179.6 89.4819C178.564 88.4504 177.652 87.3023 176.88 86.0606C176.633 85.6639 176.054 86.1014 176.3 86.4948C179.15 91.0663 183.898 94.3229 189.133 95.5203C190.62 95.8572 192.141 96.0199 193.665 96.0052C194.13 96.0018 194.034 95.2827 193.572 95.2861Z" fill="white"/>
<path d="M171.639 76.219C171.616 76.2874 171.577 76.3487 171.523 76.3969C171.47 76.4451 171.405 76.4785 171.335 76.4938C170.146 76.8054 168.997 77.2542 167.911 77.8312C166.326 78.6684 164.886 79.7564 163.648 81.0531C163.583 81.1187 163.52 81.1844 163.459 81.2524C163.357 81.3594 163.259 81.4689 163.162 81.5807V80.5205C163.318 80.3552 163.481 80.1923 163.648 80.0366C164.626 79.1007 165.709 78.2815 166.875 77.5953C168.441 77.0603 170.029 76.6016 171.639 76.219Z" fill="white"/>
<path d="M197.121 76.6863C193.82 78.105 191.058 80.5401 189.237 83.6372C189.2 83.7258 189.2 83.8254 189.236 83.9143C189.272 84.0033 189.342 84.0744 189.43 84.1123C189.518 84.1474 189.617 84.1469 189.706 84.1111C189.794 84.0752 189.866 84.0066 189.905 83.9196C191.643 80.9944 194.265 78.6968 197.393 77.3582C197.823 77.1748 197.551 76.5025 197.121 76.6863Z" fill="white"/>
<path d="M207.072 56.0342C206.508 58.1789 205.426 60.1217 204.081 61.8944L204.079 61.8968C203.955 62.0621 203.826 62.2299 203.692 62.3904V62.3928C202.759 63.543 201.751 64.6306 200.675 65.6488C196.807 69.3348 192.438 72.4562 187.697 74.9206C180.239 78.816 171.904 81.1188 163.648 81.2501C163.585 81.2525 163.522 81.2525 163.459 81.2525C163.359 81.2549 163.259 81.2549 163.162 81.2549V70.2032C163.32 69.9017 163.483 69.6002 163.648 69.3011C165.794 65.4408 168.41 61.8616 171.437 58.6457C171.51 58.5655 171.585 58.4852 171.661 58.4074C172.799 57.2062 173.992 56.0625 175.24 54.9764C180.042 50.7542 185.592 47.4677 191.602 45.2864C193.54 44.5909 195.666 44.0341 197.732 43.9247C198.036 43.9077 198.338 43.9004 198.642 43.9028C200.546 43.9295 202.372 44.3794 203.931 45.4931C204.489 45.894 204.99 46.3693 205.419 46.9059C205.57 47.0931 205.708 47.2852 205.842 47.4821V47.4846C207.452 49.8919 207.826 53.1721 207.072 56.0342Z" fill="#F2F2F2"/>
<path d="M205.842 47.4822V47.4846C205.824 47.5003 205.804 47.5142 205.784 47.526C202.185 49.6196 198.631 51.7894 195.123 54.0354C195.118 54.0379 195.116 54.0403 195.111 54.0427C195.097 54.0525 195.083 54.0614 195.067 54.0695C191.461 56.3795 187.906 58.7674 184.402 61.233C184.256 61.3352 184.108 61.4397 183.96 61.5443C181.54 63.2537 179.146 64.9996 176.777 66.782C172.303 70.1522 167.926 73.6473 163.648 77.2671C163.486 77.4033 163.325 77.5419 163.162 77.6805V76.7346C163.323 76.596 163.486 76.4574 163.648 76.3212C165.287 74.9376 166.941 73.5735 168.609 72.2288C169.107 71.8276 169.608 71.4264 170.109 71.03C174.559 67.4872 179.109 64.0764 183.758 60.7978H183.76C184.675 60.1534 185.591 59.5147 186.508 58.8816C189.115 57.0871 191.751 55.3355 194.416 53.6269C194.608 53.5029 194.802 53.3789 194.997 53.2549C198.409 51.0761 201.865 48.9687 205.365 46.9327C205.382 46.9223 205.4 46.9133 205.419 46.9059C205.784 46.76 206.126 47.2415 205.842 47.4822Z" fill="white"/>
<path d="M203.519 61.6739C198.941 64.1181 193.392 64.5443 188.45 63.0241C187.054 62.5916 185.712 61.9988 184.452 61.2576C184.049 61.0212 183.74 61.6775 184.139 61.9119C188.787 64.6362 194.505 65.3144 199.697 63.943C201.17 63.5508 202.592 62.9885 203.935 62.2674C204.346 62.0482 203.926 61.4562 203.519 61.6739Z" fill="white"/>
<path d="M169.27 70.5708C169.043 69.2979 168.965 68.0029 169.038 66.712C169.202 63.768 170.103 60.9124 171.66 58.4079C172.799 57.2071 173.992 56.0632 175.24 54.9763C175.251 55.0474 175.245 55.1203 175.22 55.1879C175.195 55.2555 175.152 55.3154 175.097 55.3617C174.189 56.1902 173.381 57.121 172.687 58.1356C170.21 61.7514 169.243 66.1921 169.992 70.5107C170.004 70.5596 170.004 70.6109 169.99 70.6596C169.977 70.7082 169.951 70.7526 169.916 70.7885C169.864 70.8338 169.801 70.8647 169.733 70.8782C169.666 70.8916 169.596 70.8871 169.53 70.865C169.465 70.843 169.407 70.8043 169.361 70.7527C169.315 70.701 169.284 70.6384 169.27 70.5708Z" fill="white"/>
<path d="M198.024 43.5533C195.76 46.3429 194.445 49.7823 194.271 53.3709C194.28 53.4665 194.326 53.5549 194.399 53.6169C194.472 53.6789 194.567 53.7095 194.663 53.7021C194.758 53.6919 194.845 53.6456 194.907 53.5727C194.968 53.4999 195 53.406 194.994 53.3107C195.174 49.9129 196.429 46.6602 198.578 44.0217C198.873 43.6599 198.32 43.1908 198.024 43.5533Z" fill="white"/>
<path d="M172.842 51.5431V51.5455C172.825 51.7547 172.806 51.9613 172.784 52.168V52.1729C172.615 53.6441 172.351 55.1029 171.994 56.5401C171.824 57.2452 171.639 57.9456 171.437 58.6459C171.413 58.7358 171.386 58.8258 171.359 58.9133V58.9158C170.765 60.9525 170.056 62.9538 169.234 64.9097C167.722 68.5109 165.851 71.9504 163.648 75.176C163.49 75.4119 163.328 75.6478 163.162 75.8812V37.802C163.325 37.7923 163.486 37.7923 163.648 37.7971C163.726 37.7971 163.804 37.7996 163.882 37.8044C164.568 37.8405 165.246 37.9723 165.895 38.1959C166.124 38.2713 166.345 38.3564 166.564 38.4513C169.217 39.6136 171.301 42.1765 172.205 44.9947C172.884 47.1054 173.02 49.3255 172.842 51.5431Z" fill="#F2F2F2"/>
<path d="M166.564 38.4511C166.558 38.4749 166.549 38.4978 166.537 38.5192C165.552 40.4329 164.589 42.3563 163.648 44.2894C163.486 44.6225 163.323 44.9581 163.162 45.2912V43.6377C163.323 43.307 163.485 42.9763 163.648 42.6456C164.376 41.1721 165.115 39.705 165.866 38.2444C165.874 38.2273 165.884 38.2111 165.895 38.1957C166.119 37.8748 166.673 38.0936 166.564 38.4511Z" fill="white"/>
<path d="M172.92 51.9345C172.876 52.0123 172.833 52.0901 172.784 52.1679C172.07 53.4122 171.22 54.5735 170.25 55.6305C168.387 57.6517 166.144 59.2853 163.648 60.4378C163.488 60.5156 163.325 60.5886 163.162 60.6567V59.8664C163.325 59.7935 163.488 59.7181 163.648 59.6403C167.261 57.9173 170.261 55.1331 172.249 51.6597C172.278 51.6101 172.317 51.5672 172.363 51.534C172.41 51.5008 172.463 51.478 172.52 51.4672C172.576 51.4563 172.634 51.4577 172.69 51.4712C172.745 51.4847 172.797 51.51 172.842 51.5454C172.873 51.5658 172.899 51.5921 172.92 51.6227C172.94 51.6533 172.955 51.6877 172.962 51.7238C172.969 51.7599 172.969 51.7971 172.962 51.8333C172.955 51.8694 172.941 51.9038 172.92 51.9345Z" fill="white"/>
<path d="M163.648 8.02435V26.5047H163.162V26.3077H0.486324V26.5047H0V8.02435C0.00208837 5.8968 0.848178 3.85699 2.35258 2.35258C3.85699 0.848178 5.8968 0.00208837 8.02435 0H155.624C157.751 0.00208837 159.791 0.848178 161.296 2.35258C162.8 3.85699 163.646 5.8968 163.648 8.02435Z" fill="#007C7B"/>
<path d="M155.624 0H8.02435C5.8968 0.00208837 3.85699 0.848178 2.35258 2.35258C0.848178 3.85699 0.00208837 5.8968 0 8.02435V113.557C0.00208837 115.684 0.848178 117.724 2.35258 119.228C3.85699 120.733 5.8968 121.579 8.02435 121.581H155.624C157.751 121.579 159.791 120.733 161.296 119.228C162.8 117.724 163.646 115.684 163.648 113.557V8.02435C163.646 5.8968 162.8 3.85699 161.296 2.35258C159.791 0.848178 157.751 0.00208837 155.624 0ZM163.162 113.557C163.159 115.555 162.364 117.471 160.951 118.884C159.538 120.297 157.622 121.092 155.624 121.095H8.02435C6.02592 121.092 4.11008 120.297 2.69697 118.884C1.28387 117.471 0.488874 115.555 0.486324 113.557V8.02435C0.488874 6.02592 1.28387 4.11008 2.69697 2.69698C4.11008 1.28388 6.02592 0.488874 8.02435 0.486324H155.624C157.622 0.488875 159.538 1.28388 160.951 2.69698C162.364 4.11008 163.159 6.02592 163.162 8.02435V113.557Z" fill="#747474"/>
<path d="M33.0703 18.1154C35.7562 18.1154 37.9335 15.9381 37.9335 13.2522C37.9335 10.5663 35.7562 8.38892 33.0703 8.38892C30.3844 8.38892 28.207 10.5663 28.207 13.2522C28.207 15.9381 30.3844 18.1154 33.0703 18.1154Z" fill="white"/>
<path d="M130.578 18.1154C133.264 18.1154 135.441 15.9381 135.441 13.2522C135.441 10.5663 133.264 8.38892 130.578 8.38892C127.892 8.38892 125.715 10.5663 125.715 13.2522C125.715 15.9381 127.892 18.1154 130.578 18.1154Z" fill="white"/>
<path d="M47.1198 67.4777H18.1893C16.9636 67.4763 15.7886 66.9888 14.9219 66.1222C14.0553 65.2555 13.5678 64.0805 13.5664 62.8549V49.1812C13.5678 47.9556 14.0553 46.7805 14.9219 45.9139C15.7886 45.0472 16.9636 44.5597 18.1893 44.5583H47.1198C48.3454 44.5597 49.5205 45.0472 50.3871 45.9139C51.2538 46.7805 51.7413 47.9556 51.7426 49.1812V62.8549C51.7413 64.0805 51.2538 65.2555 50.3871 66.1222C49.5205 66.9888 48.3454 67.4763 47.1198 67.4777Z" fill="#007C7B"/>
<path d="M96.3366 67.4777H67.4061C66.1804 67.4763 65.0054 66.9888 64.1387 66.1222C63.2721 65.2555 62.7846 64.0805 62.7832 62.8549V49.1812C62.7846 47.9556 63.2721 46.7805 64.1387 45.9139C65.0054 45.0472 66.1804 44.5597 67.4061 44.5583H96.3366C97.5622 44.5597 98.7372 45.0472 99.6039 45.9139C100.471 46.7805 100.958 47.9556 100.959 49.1812V62.8549C100.958 64.0805 100.471 65.2555 99.6039 66.1222C98.7372 66.9888 97.5622 67.4763 96.3366 67.4777Z" fill="#007C7B"/>
<path d="M96.336 102.807H67.4055C66.1428 102.806 64.9321 102.304 64.0392 101.411C63.1463 100.518 62.644 99.3072 62.6426 98.0444V84.3706C62.644 83.1078 63.1463 81.8972 64.0392 81.0043C64.9321 80.1113 66.1428 79.6091 67.4055 79.6077H96.336C97.5988 79.6091 98.8095 80.1113 99.7024 81.0043C100.595 81.8972 101.098 83.1078 101.099 84.3706V98.0444C101.098 99.3072 100.595 100.518 99.7024 101.411C98.8095 102.304 97.5988 102.806 96.336 102.807Z" fill="#F2F2F2"/>
<path d="M47.0255 102.807H18.095C16.8322 102.806 15.6215 102.304 14.7286 101.411C13.8357 100.518 13.3335 99.3072 13.332 98.0444V84.3706C13.3335 83.1078 13.8357 81.8972 14.7286 81.0043C15.6215 80.1114 16.8322 79.6091 18.095 79.6077H47.0255C48.2883 79.6091 49.4989 80.1113 50.3918 81.0043C51.2847 81.8972 51.787 83.1078 51.7884 84.3706V98.0444C51.787 99.3072 51.2847 100.518 50.3918 101.411C49.4989 102.304 48.2883 102.806 47.0255 102.807Z" fill="#F2F2F2"/>
<path d="M145.553 102.807H116.622C115.36 102.806 114.149 102.304 113.256 101.411C112.363 100.518 111.861 99.3072 111.859 98.0444V84.3706C111.861 83.1078 112.363 81.8972 113.256 81.0043C114.149 80.1113 115.36 79.6091 116.622 79.6077H145.553C146.816 79.6091 148.026 80.1113 148.919 81.0043C149.812 81.8972 150.314 83.1078 150.316 84.3706V98.0444C150.314 99.3072 149.812 100.518 148.919 101.411C148.026 102.304 146.816 102.806 145.553 102.807Z" fill="#F2F2F2"/>
<path d="M145.553 67.5053H116.622C115.36 67.5039 114.149 67.0017 113.256 66.1087C112.363 65.2158 111.861 64.0052 111.859 62.7424V49.0686C111.861 47.8058 112.363 46.5952 113.256 45.7023C114.149 44.8094 115.36 44.3071 116.622 44.3057H145.553C146.816 44.3071 148.026 44.8094 148.919 45.7023C149.812 46.5952 150.314 47.8058 150.316 49.0686V62.7424C150.314 64.0052 149.812 65.2158 148.919 66.1087C148.026 67.0017 146.816 67.5039 145.553 67.5053Z" fill="#F2F2F2"/>
<path d="M32.6554 63.8631C36.988 63.8631 40.5003 60.3508 40.5003 56.0182C40.5003 51.6856 36.988 48.1733 32.6554 48.1733C28.3228 48.1733 24.8105 51.6856 24.8105 56.0182C24.8105 60.3508 28.3228 63.8631 32.6554 63.8631Z" fill="white"/>
<path d="M31.8783 59.0107C31.7018 59.0111 31.53 58.954 31.3887 58.8481L31.38 58.8415L29.5364 57.43C29.4509 57.3646 29.3791 57.2831 29.3252 57.1899C29.2712 57.0968 29.2362 56.9939 29.222 56.8872C29.2078 56.7806 29.2148 56.6721 29.2426 56.5681C29.2703 56.4641 29.3183 56.3666 29.3837 56.2812C29.4492 56.1958 29.5309 56.1241 29.624 56.0702C29.7172 56.0164 29.8201 55.9814 29.9268 55.9673C30.0335 55.9533 30.142 55.9604 30.2459 55.9882C30.3499 56.0161 30.4473 56.0641 30.5327 56.1297L31.7269 57.0453L34.5488 53.3651C34.6142 53.2798 34.6959 53.2081 34.789 53.1543C34.8821 53.1005 34.9849 53.0656 35.0916 53.0515C35.1982 53.0374 35.3066 53.0445 35.4105 53.0723C35.5144 53.1001 35.6118 53.1481 35.6972 53.2135L35.6796 53.2374L35.6976 53.2139C35.8698 53.3462 35.9825 53.5414 36.0109 53.7567C36.0393 53.972 35.9811 54.1898 35.8492 54.3623L32.5299 58.6911C32.4532 58.7908 32.3544 58.8716 32.2414 58.927C32.1284 58.9824 32.0042 59.0111 31.8783 59.0107Z" fill="#007C7B"/>
<path d="M82.0109 63.7503C86.3435 63.7503 89.8557 60.238 89.8557 55.9054C89.8557 51.5728 86.3435 48.0605 82.0109 48.0605C77.6783 48.0605 74.166 51.5728 74.166 55.9054C74.166 60.238 77.6783 63.7503 82.0109 63.7503Z" fill="white"/>
<path d="M81.2351 58.8982C81.0586 58.8985 80.8868 58.8414 80.7455 58.7356L80.7368 58.729L78.8932 57.3175C78.7207 57.1854 78.6079 56.9901 78.5794 56.7748C78.5508 56.5594 78.6091 56.3416 78.7412 56.1692C78.8733 55.9967 79.0685 55.8838 79.2839 55.8553C79.4992 55.8268 79.7171 55.885 79.8895 56.0171L81.0836 56.9328L83.9056 53.2526C83.971 53.1672 84.0526 53.0956 84.1458 53.0418C84.2389 52.988 84.3417 52.953 84.4484 52.9389C84.555 52.9249 84.6634 52.9319 84.7673 52.9597C84.8712 52.9875 84.9686 53.0355 85.0539 53.101L85.0364 53.1248L85.0544 53.1013C85.2266 53.2337 85.3392 53.4289 85.3676 53.6442C85.3961 53.8595 85.3379 54.0772 85.206 54.2497L81.8867 58.5785C81.8099 58.6783 81.7112 58.759 81.5982 58.8144C81.4852 58.8699 81.3609 58.8985 81.2351 58.8982Z" fill="#007C7B"/>
<path d="M135.03 92.9244C135.287 92.6425 135.48 92.3077 135.595 91.9433C135.709 91.5789 135.742 91.1939 135.691 90.8153C135.641 90.4368 135.508 90.074 135.302 89.7524C135.096 89.4309 134.822 89.1584 134.499 88.9542L130.119 65.5686L124.793 67.5437L130.773 89.9099C130.466 90.4748 130.376 91.1326 130.522 91.7589C130.667 92.3852 131.038 92.9363 131.562 93.3079C132.087 93.6795 132.73 93.8457 133.369 93.775C134.008 93.7043 134.599 93.4016 135.03 92.9244Z" fill="#A0616A"/>
<path d="M92.5308 57.2403C92.544 57.3855 92.5458 57.5315 92.5361 57.677L102.892 65.6477L105.829 64.4418L108.229 68.6361L103.237 71.2763C102.834 71.4896 102.372 71.5663 101.922 71.495C101.471 71.4236 101.056 71.208 100.738 70.8806L90.3864 60.2084C89.8384 60.332 89.2658 60.2858 88.7448 60.076C88.2237 59.8662 87.7788 59.5028 87.4694 59.034C87.1599 58.5652 87.0005 58.0133 87.0123 57.4517C87.0242 56.8901 87.2067 56.3454 87.5357 55.8901C87.8646 55.4348 88.3244 55.0904 88.8538 54.9028C89.3833 54.7152 89.9573 54.6931 90.4996 54.8397C91.0419 54.9863 91.5266 55.2945 91.8895 55.7233C92.2523 56.1521 92.476 56.6812 92.5308 57.2403Z" fill="#A0616A"/>
<path d="M116.724 134.432H113.743L112.324 125.365L116.724 125.365L116.724 134.432Z" fill="#A0616A"/>
<path d="M117.485 137.322L107.873 137.321V137.2C107.873 136.708 107.97 136.222 108.158 135.768C108.346 135.314 108.621 134.901 108.969 134.554C109.316 134.207 109.729 133.931 110.183 133.743C110.637 133.555 111.123 133.458 111.614 133.458L117.486 133.458L117.485 137.322Z" fill="#2F2E41"/>
<path d="M127.909 134.432H124.928L123.51 125.365L127.91 125.365L127.909 134.432Z" fill="#A0616A"/>
<path d="M128.671 137.322L119.059 137.321V137.2C119.059 136.708 119.155 136.222 119.343 135.768C119.531 135.314 119.807 134.901 120.154 134.554C120.502 134.207 120.914 133.931 121.368 133.743C121.822 133.555 122.309 133.458 122.8 133.458L128.671 133.458L128.671 137.322Z" fill="#2F2E41"/>
<path d="M113.125 132.64C112.853 132.64 112.591 132.539 112.39 132.356C112.188 132.172 112.063 131.921 112.037 131.65L109.439 96.7099L109.562 96.6999L127.44 95.2305L127.445 95.3575L128.866 131.552C128.871 131.699 128.847 131.846 128.795 131.983C128.742 132.121 128.662 132.246 128.56 132.352C128.458 132.458 128.336 132.543 128.2 132.6C128.065 132.658 127.919 132.687 127.772 132.687H124.267C124.005 132.689 123.752 132.596 123.553 132.425C123.355 132.255 123.224 132.018 123.185 131.76L118.425 102.521C118.421 102.49 118.405 102.463 118.381 102.444C118.357 102.425 118.327 102.416 118.296 102.418C118.266 102.42 118.237 102.434 118.216 102.456C118.195 102.478 118.184 102.508 118.183 102.538L117.968 131.407C117.965 131.686 117.857 131.954 117.664 132.155C117.472 132.357 117.209 132.477 116.931 132.492L113.184 132.638C113.164 132.639 113.145 132.64 113.125 132.64Z" fill="#2F2E41"/>
<path d="M116.175 52.5533C119.474 52.5533 122.148 49.8794 122.148 46.581C122.148 43.2825 119.474 40.6086 116.175 40.6086C112.877 40.6086 110.203 43.2825 110.203 46.581C110.203 49.8794 112.877 52.5533 116.175 52.5533Z" fill="#A0616A"/>
<path d="M117.333 98.9382C114.722 98.9304 112.124 98.5753 109.608 97.8824C109.365 97.8119 109.155 97.6601 109.012 97.4525C108.868 97.2449 108.801 96.9943 108.821 96.7428C109.625 84.6593 109.814 75.2821 108.123 68.794C107.403 66.0287 107.73 63.1164 109.021 60.8037C110.964 57.3234 114.535 55.2051 118.344 55.2782C118.526 55.2816 118.709 55.2881 118.895 55.2977C124.676 55.5953 129.18 60.8249 128.936 66.9553L127.774 96.1757C127.769 96.3889 127.702 96.5961 127.58 96.7711C127.458 96.9461 127.287 97.0811 127.089 97.1591C123.97 98.3325 120.665 98.9351 117.333 98.9382Z" fill="#3F3D56"/>
<path d="M109.106 71.0376L104.632 65.5556C104.505 65.3996 104.412 65.2181 104.362 65.0232C104.311 64.8284 104.303 64.625 104.338 64.4267C104.373 64.2284 104.45 64.04 104.564 63.8743C104.679 63.7086 104.827 63.5695 105 63.4664L111.06 59.8554C111.862 59.2086 112.887 58.906 113.912 59.0142C114.936 59.1223 115.876 59.6323 116.525 60.4323C117.174 61.2324 117.479 62.2571 117.374 63.2818C117.268 64.3065 116.761 65.2476 115.962 65.8986L111.226 71.0958C111.091 71.2445 110.924 71.3623 110.739 71.4411C110.554 71.5198 110.354 71.5578 110.153 71.5522C109.951 71.5467 109.754 71.4979 109.573 71.4091C109.392 71.3203 109.233 71.1936 109.106 71.0376Z" fill="#3F3D56"/>
<path d="M123.178 70.3497C122.995 70.2674 122.831 70.1465 122.698 69.9952C122.565 69.8439 122.467 69.6657 122.409 69.4728L120.395 62.7359C119.958 61.8031 119.909 60.7349 120.258 59.7657C120.607 58.7965 121.327 58.0054 122.258 57.5659C123.19 57.1264 124.258 57.0744 125.228 57.4213C126.198 57.7682 126.991 58.4857 127.433 59.4164L131.328 65.2981C131.439 65.466 131.512 65.6558 131.543 65.8547C131.575 66.0536 131.563 66.2569 131.508 66.4507C131.454 66.6445 131.358 66.8243 131.228 66.9778C131.097 67.1313 130.936 67.255 130.753 67.3403L124.345 70.34C124.163 70.4254 123.964 70.4705 123.763 70.4722C123.561 70.4739 123.362 70.4321 123.178 70.3497Z" fill="#3F3D56"/>
<path d="M119.127 51.4816L114.7 50.4683C114.243 50.3638 113.694 50.1644 113.631 49.7002C113.546 49.0765 114.443 48.642 114.361 48.0179C114.28 47.4135 113.463 47.3356 112.88 47.1571C112.337 46.9667 111.889 46.5724 111.632 46.0577C111.374 45.543 111.327 44.9484 111.5 44.3996C110.87 45.2886 109.428 45.3648 108.61 44.6445C107.792 43.9243 107.635 42.6175 108.126 41.6444C108.392 41.1665 108.766 40.7579 109.219 40.452C109.672 40.1461 110.191 39.9514 110.734 39.8838C111.825 39.7601 112.928 39.9657 113.901 40.4742C113.966 39.7852 114.826 39.5059 115.518 39.4998C116.955 39.5165 118.352 39.981 119.513 40.8285C120.674 41.676 121.542 42.8644 121.996 44.2284C122.845 46.9645 122.277 49.9637 119.902 51.5645L119.127 51.4816Z" fill="#2F2E41"/>
</g>
<defs>
<clipPath id="clip0_1688_3581">
<rect width="207.446" height="137.387" fill="white"/>
</clipPath>
</defs>
</svg>
