<svg width="242" height="241" viewBox="0 0 242 241" fill="none" xmlns="http://www.w3.org/2000/svg">
<g clip-path="url(#clip0_1688_3762)">
<path d="M159.4 63.7174H119.736C118.867 63.72 118.01 63.5245 117.228 63.1458C116.447 62.7671 115.762 62.2152 115.226 61.532C114.68 60.8423 114.299 60.0372 114.112 59.1781C113.924 58.3189 113.935 57.4282 114.144 56.5738C117.799 41.2619 117.799 25.3044 114.143 9.99244C113.935 9.13811 113.924 8.2475 114.112 7.38837C114.299 6.52924 114.68 5.72422 115.226 5.03457C115.762 4.35132 116.447 3.79935 117.228 3.42064C118.01 3.04193 118.867 2.84648 119.736 2.84915H159.4C160.77 2.85308 162.093 3.343 163.135 4.23164C164.177 5.12028 164.87 6.34994 165.09 7.70161C167.7 24.6561 167.7 41.9104 165.09 58.8649C164.87 60.2166 164.177 61.4462 163.135 62.3349C162.093 63.2235 160.77 63.7134 159.4 63.7174Z" fill="#E6E6E6"/>
<path d="M119.738 5.83376C119.321 5.83235 118.909 5.92609 118.534 6.10782C118.158 6.28955 117.829 6.5545 117.572 6.8825C117.307 7.21857 117.122 7.6107 117.031 8.02904C116.94 8.44739 116.946 8.88094 117.048 9.29671C120.813 25.0662 120.813 41.5005 117.048 57.27C116.946 57.6857 116.94 58.1192 117.031 58.5374C117.122 58.9557 117.307 59.3478 117.572 59.6838C117.829 60.0118 118.158 60.2771 118.534 60.4589C118.909 60.6406 119.321 60.7344 119.738 60.733H159.402C160.06 60.7332 160.697 60.5 161.198 60.0749C161.7 59.6498 162.035 59.0603 162.143 58.4116C164.707 41.7575 164.707 24.8092 162.143 8.15518C162.035 7.50641 161.7 6.91699 161.198 6.49186C160.697 6.06674 160.06 5.83353 159.402 5.83375L119.738 5.83376Z" fill="white"/>
<path d="M150.746 20.1846H129.932C129.14 20.1837 128.382 19.869 127.822 19.3095C127.263 18.75 126.948 17.9914 126.947 17.2002V16.0339C126.948 15.2427 127.263 14.4841 127.822 13.9246C128.382 13.3651 129.14 13.0504 129.932 13.0496H150.746C151.537 13.0504 152.296 13.3651 152.855 13.9246C153.415 14.4841 153.729 15.2427 153.73 16.0339V17.2002C153.729 17.9914 153.415 18.75 152.855 19.3095C152.296 19.869 151.537 20.1837 150.746 20.1846Z" fill="#E6E6E6"/>
<path d="M150.746 34.9206H129.932C129.14 34.9198 128.382 34.6051 127.822 34.0456C127.263 33.4861 126.948 32.7275 126.947 31.9363V30.77C126.948 29.9788 127.263 29.2202 127.822 28.6607C128.382 28.1012 129.14 27.7865 129.932 27.7856H150.746C151.537 27.7865 152.296 28.1012 152.855 28.6607C153.415 29.2202 153.729 29.9788 153.73 30.77V31.9363C153.729 32.7275 153.415 33.4861 152.855 34.0456C152.296 34.6051 151.537 34.9198 150.746 34.9206Z" fill="#E6E6E6"/>
<path d="M150.746 49.657H129.932C129.14 49.6561 128.382 49.3414 127.822 48.7819C127.263 48.2224 126.948 47.4638 126.947 46.6726V45.5063C126.948 44.7151 127.263 43.9565 127.822 43.397C128.382 42.8375 129.14 42.5228 129.932 42.522H150.746C151.537 42.5228 152.296 42.8375 152.855 43.397C153.415 43.9565 153.729 44.7151 153.73 45.5063V46.6726C153.729 47.4638 153.415 48.2224 152.855 48.7819C152.296 49.3414 151.537 49.6561 150.746 49.657Z" fill="#E6E6E6"/>
<path d="M234.013 101.521H194.349C193.48 101.524 192.623 101.328 191.842 100.95C191.06 100.571 190.375 100.019 189.839 99.3357C189.294 98.646 188.913 97.841 188.725 96.9818C188.537 96.1226 188.548 95.2319 188.757 94.3775C192.412 79.0656 192.412 63.1081 188.757 47.7962C188.548 46.9418 188.537 46.0512 188.725 45.1921C188.913 44.333 189.294 43.5279 189.839 42.8383C190.375 42.155 191.06 41.6031 191.841 41.2244C192.623 40.8456 193.48 40.6502 194.349 40.6529H234.013C235.383 40.6568 236.706 41.1467 237.748 42.0354C238.79 42.924 239.483 44.1537 239.703 45.5053C242.314 62.4599 242.314 79.7141 239.703 96.6686C239.483 98.0203 238.79 99.2499 237.748 100.139C236.706 101.027 235.383 101.517 234.013 101.521Z" fill="#E6E6E6"/>
<path d="M194.349 43.6372C193.932 43.6358 193.52 43.7295 193.145 43.9113C192.77 44.093 192.441 44.358 192.183 44.686C191.918 45.022 191.733 45.4142 191.642 45.8325C191.551 46.2509 191.557 46.6844 191.659 47.1002C195.424 62.8697 195.424 79.304 191.659 95.0735C191.557 95.4892 191.551 95.9226 191.642 96.3409C191.733 96.7592 191.918 97.1512 192.183 97.4872C192.441 97.8153 192.77 98.0806 193.145 98.2623C193.52 98.4441 193.932 98.5379 194.349 98.5365H234.014C234.671 98.5367 235.308 98.3035 235.81 97.8783C236.311 97.4532 236.646 96.8638 236.754 96.215C239.318 79.561 239.318 62.6127 236.754 45.9587C236.646 45.3099 236.311 44.7205 235.81 44.2953C235.308 43.8702 234.671 43.637 234.014 43.6372L194.349 43.6372Z" fill="white"/>
<path d="M154.924 144.547H115.26C114.354 144.55 113.459 144.346 112.644 143.951C111.829 143.556 111.114 142.98 110.555 142.267C109.986 141.548 109.588 140.709 109.393 139.813C109.197 138.917 109.208 137.988 109.426 137.097C113.072 121.823 113.072 105.906 109.426 90.6317C109.208 89.7409 109.197 88.8121 109.393 87.9163C109.588 87.0204 109.986 86.1809 110.555 85.4618C111.114 84.749 111.829 84.1731 112.644 83.778C113.459 83.3829 114.354 83.1789 115.26 83.1817H154.924C156.353 83.1859 157.734 83.6972 158.821 84.6245C159.908 85.5517 160.631 86.8347 160.86 88.245C163.474 105.225 163.474 122.504 160.86 139.484C160.631 140.894 159.908 142.177 158.821 143.104C157.734 144.032 156.353 144.543 154.924 144.547Z" fill="#F2F2F2"/>
<path d="M225.357 65.4492H204.543C203.752 65.4483 202.993 65.1336 202.434 64.5742C201.874 64.0147 201.559 63.2561 201.559 62.4648V61.2986C201.559 60.5073 201.874 59.7488 202.434 59.1893C202.993 58.6298 203.752 58.3151 204.543 58.3142H225.357C226.149 58.3151 226.907 58.6298 227.467 59.1893C228.026 59.7488 228.341 60.5073 228.342 61.2986V62.4649C228.341 63.2561 228.026 64.0147 227.467 64.5742C226.907 65.1336 226.149 65.4483 225.357 65.4492Z" fill="#E6E6E6"/>
<path d="M225.357 80.1855H204.543C203.752 80.1847 202.993 79.87 202.434 79.3105C201.874 78.751 201.559 77.9924 201.559 77.2012V76.0349C201.559 75.2437 201.874 74.4851 202.434 73.9256C202.993 73.3661 203.752 73.0514 204.543 73.0505H225.357C226.149 73.0514 226.907 73.3661 227.467 73.9256C228.026 74.4851 228.341 75.2437 228.342 76.0349V77.2012C228.341 77.9924 228.026 78.751 227.467 79.3105C226.907 79.87 226.149 80.1847 225.357 80.1855Z" fill="#E6E6E6"/>
<path d="M135.202 125.1C141.521 125.1 146.643 119.978 146.643 113.659C146.643 107.341 141.521 102.219 135.202 102.219C128.884 102.219 123.762 107.341 123.762 113.659C123.762 119.978 128.884 125.1 135.202 125.1Z" fill="white"/>
<path d="M140.676 112.167H136.696V108.188C136.696 107.792 136.539 107.412 136.259 107.133C135.979 106.853 135.6 106.696 135.204 106.696C134.808 106.696 134.429 106.853 134.149 107.133C133.869 107.412 133.712 107.792 133.712 108.188V112.167H129.732C129.337 112.167 128.957 112.324 128.677 112.604C128.397 112.884 128.24 113.264 128.24 113.659C128.24 114.055 128.397 114.435 128.677 114.715C128.957 114.994 129.337 115.152 129.732 115.152H133.712V119.131C133.712 119.527 133.869 119.906 134.149 120.186C134.429 120.466 134.808 120.623 135.204 120.623C135.6 120.623 135.979 120.466 136.259 120.186C136.539 119.906 136.696 119.527 136.696 119.131V115.152H140.676C141.071 115.152 141.451 114.994 141.731 114.715C142.011 114.435 142.168 114.055 142.168 113.659C142.168 113.264 142.011 112.884 141.731 112.604C141.451 112.324 141.071 112.167 140.676 112.167Z" fill="#E6E6E6"/>
<path d="M149.628 8.45605H128.736C128.143 8.45538 127.574 8.21934 127.154 7.79971C126.735 7.38008 126.499 6.81113 126.498 6.21768V2.23837C126.499 1.64492 126.735 1.07597 127.154 0.656341C127.574 0.23671 128.143 0.000668803 128.736 0H149.628C150.221 0.000668803 150.79 0.23671 151.21 0.656341C151.629 1.07597 151.866 1.64492 151.866 2.23837V6.21768C151.866 6.81113 151.629 7.38008 151.21 7.79971C150.79 8.21934 150.221 8.45538 149.628 8.45605Z" fill="#CCCCCC"/>
<path d="M225.235 46.7571H204.344C203.75 46.7564 203.181 46.5204 202.762 46.1007C202.342 45.6811 202.106 45.1122 202.105 44.5187V40.5394C202.106 39.9459 202.342 39.377 202.762 38.9574C203.181 38.5377 203.75 38.3017 204.344 38.301H225.235C225.829 38.3017 226.398 38.5377 226.817 38.9574C227.237 39.377 227.473 39.9459 227.474 40.5394V44.5187C227.473 45.1122 227.237 45.6811 226.817 46.1007C226.398 46.5204 225.829 46.7564 225.235 46.7571Z" fill="#CCCCCC"/>
<path d="M44.0694 234.313H50.1677L52.0742 210.791H44.0684L44.0694 234.313Z" fill="#FFB8B8"/>
<path d="M42.5137 232.322L54.5232 232.321H54.5237C55.5287 232.321 56.5239 232.519 57.4525 232.904C58.3811 233.288 59.2248 233.852 59.9355 234.563C60.6462 235.274 61.2099 236.117 61.5945 237.046C61.9792 237.974 62.1771 238.97 62.1771 239.975V240.223L42.5141 240.224L42.5137 232.322Z" fill="#2F2E41"/>
<path d="M11.2393 234.313H17.3376L20.239 210.791H11.2383L11.2393 234.313Z" fill="#FFB8B8"/>
<path d="M9.68359 232.322L21.6931 232.321H21.6936C22.6986 232.321 23.6939 232.519 24.6224 232.904C25.551 233.288 26.3947 233.852 27.1054 234.563C27.8161 235.274 28.3798 236.117 28.7645 237.046C29.1491 237.974 29.347 238.97 29.347 239.975V240.223L9.68397 240.224L9.68359 232.322Z" fill="#2F2E41"/>
<path d="M12.3226 226.882C11.7005 226.882 11.1013 226.648 10.6438 226.226C10.3983 226.002 10.2005 225.731 10.0624 225.429C9.92431 225.126 9.84871 224.799 9.84015 224.467L7.39453 136.816L42.1196 145.497L52.8337 177.639C54.2153 181.773 54.8134 186.13 54.5973 190.484L53.2669 221.64C53.2365 222.279 52.9615 222.881 52.4989 223.322C52.0363 223.762 51.4216 224.008 50.7826 224.008H44.9584C44.3572 224.005 43.7771 223.786 43.3244 223.39C42.8717 222.995 42.5768 222.449 42.4938 221.854L38.331 187.462C37.9672 184.779 37.0287 182.206 35.5794 179.919L27.3872 166.948C27.3325 166.862 27.2523 166.794 27.1576 166.755C27.0629 166.716 26.9584 166.706 26.8584 166.729C26.7584 166.751 26.6677 166.804 26.5987 166.88C26.5298 166.955 26.4859 167.051 26.4732 167.152L20.0443 224.399C19.9753 224.98 19.7036 225.517 19.2772 225.917C18.8507 226.317 18.2968 226.554 17.7129 226.586L12.4642 226.878C12.417 226.881 12.3699 226.882 12.3226 226.882Z" fill="#2F2E41"/>
<path d="M36.3401 80.0676C43.0873 80.0676 48.5571 74.5978 48.5571 67.8506C48.5571 61.1033 43.0873 55.6335 36.3401 55.6335C29.5928 55.6335 24.123 61.1033 24.123 67.8506C24.123 74.5978 29.5928 80.0676 36.3401 80.0676Z" fill="#FFB8B8"/>
<path d="M41.9521 149.061C41.7419 149.061 41.5325 149.034 41.3289 148.982L6.87541 140.148C6.25942 139.99 5.72728 139.603 5.3884 139.065C5.04952 138.527 4.92964 137.879 5.05344 137.255L12.9659 94.6315C13.4589 92.1677 14.5424 89.8603 16.1236 87.9075C17.7047 85.9546 19.7362 84.4147 22.0436 83.42C24.2918 82.4249 26.7505 81.9986 29.2025 82.1786C31.6545 82.3587 34.0245 83.1395 36.1033 84.4522C36.5857 84.7532 37.0716 85.0813 37.5471 85.4276C39.4616 86.8399 41.0229 88.6765 42.1084 90.7934C43.194 92.9104 43.7744 95.25 43.804 97.6289L44.4332 146.539C44.4374 146.868 44.3764 147.194 44.2538 147.5C44.1311 147.805 43.9491 148.083 43.7184 148.317C43.4877 148.552 43.2129 148.738 42.9097 148.866C42.6065 148.994 42.2811 149.06 41.9521 149.061Z" fill="#007C7B"/>
<path d="M10.4214 149.563C10.0104 148.958 9.73706 148.27 9.62054 147.548C9.50403 146.827 9.54722 146.088 9.74707 145.384C9.94691 144.681 10.2985 144.03 10.7772 143.477C11.2559 142.924 11.85 142.483 12.5175 142.185L10.9851 124.476L19.1059 128.877L19.3161 145.019C19.743 146.174 19.7316 147.445 19.2838 148.592C18.8361 149.739 17.9832 150.682 16.8869 151.242C15.7905 151.802 14.5267 151.94 13.3351 151.631C12.1435 151.321 11.1068 150.586 10.4214 149.563Z" fill="#FFB8B8"/>
<path d="M13.322 139.843C13.0929 139.842 12.8646 139.814 12.6427 139.757C12.1652 139.635 11.7295 139.386 11.3818 139.037C11.034 138.688 10.787 138.252 10.667 137.774L6.67611 121.914C5.28142 116.375 5.94628 110.518 8.54701 105.433L16.908 89.0768C17.4365 87.1186 18.7135 85.4465 20.4636 84.4212C22.2138 83.3959 24.2968 83.0995 26.2634 83.596C27.2436 83.8435 28.1649 84.2832 28.974 84.8895C29.783 85.4958 30.4636 86.2566 30.9763 87.128C31.4996 88.0118 31.8419 88.9908 31.9831 90.0082C32.1244 91.0255 32.0618 92.0608 31.7991 93.0537L19.8972 119.668L20.0385 135.603C20.0422 136.165 19.8732 136.715 19.5543 137.178C19.2354 137.641 18.7821 137.995 18.2556 138.192L14.2726 139.671C13.9685 139.785 13.6465 139.843 13.322 139.843Z" fill="#007C7B"/>
<path d="M70.2947 143.049C69.5682 142.966 68.8687 142.725 68.2456 142.342C67.6224 141.959 67.0907 141.445 66.688 140.834C66.2852 140.224 66.0211 139.533 65.9144 138.809C65.8077 138.086 65.8608 137.348 66.0702 136.647L51.6484 126.257L60.2818 122.973L72.6534 133.343C73.8071 133.773 74.7631 134.611 75.3403 135.699C75.9174 136.786 76.0756 138.047 75.7849 139.244C75.4942 140.44 74.7747 141.488 73.7628 142.19C72.7509 142.891 71.517 143.197 70.2947 143.049Z" fill="#FFB8B8"/>
<path d="M62.7434 135.461C62.3182 135.461 61.8989 135.362 61.5184 135.172L46.8949 127.851C41.7871 125.295 37.7816 120.97 35.6231 115.682L28.6806 98.6752C27.5413 96.997 27.1071 94.9383 27.4716 92.943C27.8362 90.9476 28.9702 89.1754 30.6293 88.0085C31.4583 87.4256 32.3949 87.0136 33.3847 86.7964C34.3746 86.5792 35.3977 86.5611 36.3945 86.7434C37.4031 86.9247 38.3656 87.3044 39.2263 87.8604C40.0871 88.4165 40.8289 89.1378 41.4089 89.9826L53.8169 116.365L65.9866 126.653C66.4151 127.017 66.7215 127.504 66.8645 128.047C67.0074 128.591 66.9799 129.166 66.7857 129.693L65.3086 133.677C65.1157 134.199 64.7673 134.65 64.3103 134.968C63.8509 135.289 63.3039 135.461 62.7434 135.461Z" fill="#007C7B"/>
<path d="M33.7758 80.2546C34.4249 80.5386 35.7541 75.3663 35.1587 74.3318C34.2732 72.7934 34.3255 72.8044 33.7377 71.7866C33.1498 70.7687 33.0183 69.3755 33.7796 68.4799C34.5408 67.5843 36.3024 67.7032 36.6498 68.826C36.4264 66.6932 38.536 64.9788 40.6257 64.497C42.7154 64.0152 44.9196 64.3143 47.0208 63.8856C49.4593 63.388 51.9965 61.3439 51.0236 58.6624C50.8566 58.2159 50.6066 57.8051 50.2869 57.4516C49.1627 56.1877 47.5903 55.648 46.0529 55.1262C42.8545 54.0406 39.5686 52.9414 36.1931 53.0612C33.4118 53.2067 30.7333 54.1597 28.4853 55.8037C26.2372 57.4477 24.5172 59.7114 23.5357 62.3177C23.3031 62.9698 23.1228 63.6393 22.9968 64.32C21.8382 70.5498 25.4558 76.6947 31.3316 79.0669L33.7758 80.2546Z" fill="#2F2E41"/>
<path opacity="0.2" d="M19.3496 135.965L19.6267 119.585L28.3031 102.141L21.3393 120.048L19.3496 135.965Z" fill="black"/>
<path d="M98.0302 177.071L61.4014 161.852C60.5985 161.521 59.8816 161.012 59.3053 160.362C58.729 159.713 58.3084 158.94 58.0756 158.104C57.8363 157.257 57.7932 156.368 57.9496 155.502C58.106 154.637 58.4578 153.819 58.9782 153.11C68.229 140.372 74.3516 125.636 76.8505 110.093C76.9858 109.224 77.3176 108.398 77.8205 107.676C78.3234 106.955 78.9842 106.358 79.7526 105.93C80.5097 105.505 81.3539 105.258 82.2208 105.208C83.0878 105.158 83.9547 105.307 84.7555 105.642L121.384 120.861C122.647 121.39 123.682 122.35 124.303 123.571C124.924 124.791 125.092 126.193 124.777 127.525C120.682 144.184 114.062 160.117 105.146 174.773C104.425 175.937 103.313 176.806 102.01 177.227C100.707 177.648 99.2963 177.593 98.0302 177.071Z" fill="#E6E6E6"/>
<path d="M83.6087 108.399C83.2241 108.237 82.8079 108.166 82.3915 108.19C81.9752 108.214 81.5698 108.332 81.2061 108.536C80.8323 108.745 80.5109 109.036 80.2666 109.387C80.0222 109.739 79.8612 110.141 79.7958 110.564C77.2222 126.572 70.9167 141.748 61.3894 154.866C61.1357 155.211 60.964 155.609 60.8873 156.03C60.8106 156.451 60.831 156.884 60.947 157.296C61.0588 157.698 61.261 158.069 61.5379 158.381C61.8147 158.693 62.1591 158.938 62.5447 159.096L99.1736 174.315C99.7808 174.567 100.458 174.596 101.084 174.396C101.711 174.196 102.246 173.78 102.595 173.222C111.352 158.827 117.855 143.176 121.877 126.812C122.027 126.172 121.944 125.499 121.643 124.914C121.343 124.329 120.845 123.87 120.238 123.617L83.6087 108.399Z" fill="white"/>
<path d="M103.112 142.276L83.891 134.29C83.1607 133.986 82.5809 133.404 82.2789 132.673C81.9769 131.941 81.9773 131.12 82.2801 130.389L82.7276 129.312C83.032 128.582 83.6137 128.002 84.345 127.7C85.0763 127.398 85.8976 127.398 86.6286 127.701L105.85 135.687C106.58 135.992 107.16 136.573 107.462 137.305C107.764 138.036 107.764 138.857 107.461 139.588L107.013 140.665C106.709 141.396 106.127 141.975 105.396 142.277C104.665 142.579 103.843 142.579 103.112 142.276Z" fill="#007C7B"/>
<path d="M97.4581 155.884L78.2367 147.898C77.5064 147.594 76.9266 147.012 76.6246 146.281C76.3226 145.55 76.3231 144.728 76.6258 143.997L77.0733 142.92C77.3777 142.19 77.9594 141.61 78.6907 141.308C79.422 141.006 80.2433 141.007 80.9743 141.309L100.196 149.296C100.926 149.6 101.506 150.182 101.808 150.913C102.11 151.644 102.109 152.466 101.807 153.197L101.359 154.274C101.055 155.004 100.473 155.584 99.7417 155.886C99.0104 156.188 98.1891 156.187 97.4581 155.884Z" fill="#007C7B"/>
<path d="M110.815 123.151C110.527 123.151 110.242 123.095 109.976 122.987L90.6076 115.156C90.0577 114.933 89.6187 114.501 89.387 113.954C89.1552 113.408 89.1496 112.792 89.3713 112.242L90.863 108.552C91.0856 108.002 91.5176 107.563 92.0641 107.331C92.6106 107.099 93.2268 107.094 93.7772 107.316L113.145 115.147C113.695 115.37 114.134 115.802 114.366 116.349C114.598 116.895 114.603 117.511 114.382 118.061L112.89 121.751C112.723 122.164 112.436 122.518 112.066 122.767C111.697 123.016 111.261 123.15 110.815 123.151Z" fill="#CCCCCC"/>
<path d="M70.1355 240.5H0.497415C0.365492 240.5 0.23898 240.448 0.145697 240.355C0.0524133 240.261 0 240.135 0 240.003C0 239.871 0.0524133 239.744 0.145697 239.651C0.23898 239.558 0.365492 239.505 0.497415 239.505H70.1355C70.2674 239.505 70.3939 239.558 70.4872 239.651C70.5805 239.744 70.6329 239.871 70.6329 240.003C70.6329 240.135 70.5805 240.261 70.4872 240.355C70.3939 240.448 70.2674 240.5 70.1355 240.5Z" fill="#CCCCCC"/>
</g>
<defs>
<clipPath id="clip0_1688_3762">
<rect width="241.661" height="240.5" fill="white"/>
</clipPath>
</defs>
</svg>
