<svg width="60" height="60" viewBox="0 0 60 60" fill="none" xmlns="http://www.w3.org/2000/svg">
<rect x="1.5" y="1.5" width="57" height="57" rx="5.50442" fill="white"/>
<rect x="1.5" y="1.5" width="57" height="57" rx="5.50442" stroke="#FDBC52" stroke-width="3"/>
<path fill-rule="evenodd" clip-rule="evenodd" d="M38.6314 28.4958C44.8867 28.4958 50.0007 33.6098 50.0007 39.8651C50.0007 46.1204 44.8867 51.2344 38.6314 51.2344H36.8523C36.0744 51.2344 35.4431 50.6031 35.4431 49.8251C35.4431 49.0472 36.0744 48.4159 36.8523 48.4159H38.6314C43.3309 48.4159 47.1822 44.5646 47.1822 39.8715C47.1822 35.1784 43.3309 31.3206 38.6314 31.3206H21.045C14.7897 31.3078 9.67578 26.2003 9.67578 19.945C9.67578 13.6896 14.7897 8.57568 21.045 8.57568H22.8241C23.602 8.57568 24.2333 9.20696 24.2333 9.98489C24.2333 10.7628 23.602 11.3941 22.8241 11.3941H21.045C16.3456 11.3941 12.4942 15.2455 12.4942 19.945C12.4942 24.6444 16.3456 28.4958 21.045 28.4958H38.6314Z" fill="#FDBC52"/>
<path fill-rule="evenodd" clip-rule="evenodd" d="M30.2143 44.5899C29.4428 44.5899 28.8115 43.9586 28.8115 43.1807C28.8115 42.4028 29.4428 41.7715 30.2143 41.7715H40.946C41.7175 41.7715 42.3488 42.4028 42.3488 43.1807C42.3488 43.9586 41.7175 44.5899 40.946 44.5899H30.2143Z" fill="#007C7B"/>
<path fill-rule="evenodd" clip-rule="evenodd" d="M23.5762 37.9522C22.7983 37.9522 22.167 37.3209 22.167 36.543C22.167 35.7651 22.7983 35.1338 23.5762 35.1338H40.9457C41.7173 35.1338 42.3486 35.7651 42.3486 36.543C42.3486 37.3209 41.7173 37.9522 40.9457 37.9522H23.5762Z" fill="#007C7B"/>
<path fill-rule="evenodd" clip-rule="evenodd" d="M36.1069 21.8579C36.8848 21.8579 37.5161 22.4892 37.5161 23.2671C37.5161 24.045 36.8848 24.6699 36.1069 24.6699H18.7373C17.9594 24.6699 17.3281 24.0387 17.3281 23.2671C17.3281 22.4956 17.9594 21.8579 18.7373 21.8579H36.1069Z" fill="#007C7B"/>
<path fill-rule="evenodd" clip-rule="evenodd" d="M29.4626 15.2134C30.2405 15.2134 30.8718 15.8447 30.8718 16.6226C30.8718 17.4005 30.2405 18.0318 29.4626 18.0318H18.7373C17.9594 18.0318 17.3281 17.4005 17.3281 16.6226C17.3281 15.8447 17.9594 15.2134 18.7373 15.2134H29.4626Z" fill="#007C7B"/>
</svg>
