<svg width="239" height="253" viewBox="0 0 239 253" fill="none" xmlns="http://www.w3.org/2000/svg">
<g clip-path="url(#clip0_371_2922)">
<path d="M239 56.1125H237.699V20.5707C237.699 17.8693 237.166 15.1944 236.129 12.6986C235.093 10.2029 233.574 7.93517 231.659 6.02501C229.744 4.11485 227.47 2.59963 224.968 1.56585C222.466 0.532079 219.784 2.13042e-06 217.076 0H141.581C138.873 -6.39103e-06 136.191 0.532062 133.688 1.56583C131.186 2.59959 128.913 4.11481 126.998 6.02497C125.083 7.93512 123.563 10.2028 122.527 12.6986C121.49 15.1943 120.957 17.8692 120.957 20.5706V215.556C120.957 221.011 123.13 226.244 126.998 230.101C130.865 233.959 136.111 236.126 141.581 236.126H217.076C222.545 236.126 227.791 233.959 231.659 230.101C235.526 226.244 237.699 221.012 237.699 215.556V81.4117H239L239 56.1125Z" fill="#3F3D56"/>
<path d="M217.908 5.35206H208.054C208.507 6.46026 208.68 7.66262 208.558 8.85321C208.435 10.0438 208.021 11.1861 207.352 12.1794C206.682 13.1728 205.778 13.9867 204.719 14.5496C203.66 15.1124 202.479 15.4068 201.279 15.4069H158.029C156.829 15.4068 155.648 15.1124 154.589 14.5496C153.53 13.9868 152.626 13.1728 151.956 12.1795C151.287 11.1861 150.873 10.0438 150.75 8.85321C150.628 7.66261 150.801 6.46025 151.254 5.35205H142.05C137.965 5.35205 134.048 6.97053 131.159 9.85144C128.271 12.7324 126.648 16.6397 126.648 20.714V215.413C126.648 219.487 128.271 223.395 131.159 226.276C134.048 229.157 137.965 230.775 142.05 230.775H217.908C219.931 230.775 221.934 230.378 223.802 229.606C225.671 228.834 227.369 227.702 228.799 226.276C230.229 224.849 231.364 223.156 232.138 221.292C232.912 219.428 233.31 217.43 233.31 215.413V20.714C233.31 18.6966 232.912 16.699 232.138 14.8352C231.364 12.9714 230.229 11.2779 228.799 9.85145C227.369 8.42496 225.671 7.29342 223.802 6.52141C221.934 5.7494 219.931 5.35206 217.908 5.35206Z" fill="white"/>
<path d="M183.96 216.984C177.257 216.987 170.756 214.692 165.548 210.484C160.339 206.275 156.739 200.409 155.35 193.867C153.962 187.326 154.87 180.508 157.923 174.555C160.975 168.602 165.986 163.877 172.115 161.17C178.245 158.464 185.121 157.941 191.591 159.69C198.061 161.439 203.732 165.352 207.653 170.775C211.575 176.198 213.508 182.8 213.13 189.476C212.751 196.151 210.084 202.494 205.575 207.441L211.679 214.266L208.633 215.555C203.921 217.549 199.31 215.609 196.721 214.06C192.744 215.984 188.381 216.983 183.96 216.984ZM183.96 163.467C180.233 163.468 176.554 164.32 173.207 165.956C169.859 167.592 166.931 169.969 164.646 172.907C162.361 175.845 160.779 179.264 160.021 182.905C159.264 186.546 159.351 190.311 160.276 193.913C161.201 197.515 162.939 200.858 165.358 203.688C167.777 206.517 170.812 208.757 174.231 210.238C177.651 211.718 181.365 212.399 185.089 212.229C188.813 212.058 192.448 211.041 195.718 209.255L197.022 208.54L198.234 209.401C199.619 210.406 201.193 211.124 202.861 211.512L199.02 207.217L200.704 205.639C203.149 203.367 205.097 200.614 206.425 197.555C207.752 194.495 208.43 191.195 208.417 187.861C208.41 181.394 205.831 175.193 201.246 170.62C196.661 166.047 190.444 163.475 183.96 163.467Z" fill="#E6E6E6"/>
<path d="M210.787 187.861C210.784 181.999 208.851 176.3 205.285 171.64C201.718 166.981 196.716 163.619 191.047 162.072C185.378 160.525 179.356 160.878 173.908 163.078C168.46 165.277 163.887 169.201 160.893 174.245C157.899 179.29 156.649 185.175 157.336 190.998C158.023 196.82 160.608 202.255 164.695 206.469C168.781 210.682 174.142 213.44 179.953 214.318C185.764 215.196 191.704 214.145 196.858 211.328C198.712 212.644 203.236 215.269 207.706 213.378L202.326 207.363C205 204.864 207.131 201.843 208.586 198.488C210.042 195.134 210.791 191.516 210.787 187.861Z" fill="white"/>
<path d="M189.312 182.39H170.143V184.165H189.312V182.39Z" fill="#005E5D"/>
<path d="M203.554 188.532H170.143V190.307H203.554V188.532Z" fill="#E6E6E6"/>
<path d="M203.521 194.674H170.143V196.45H203.521V194.674Z" fill="#E6E6E6"/>
<path d="M183.96 87.5292C177.257 87.5323 170.756 85.2373 165.548 81.0286C160.339 76.8199 156.739 70.9535 155.35 64.4123C153.962 57.8711 154.87 51.0528 157.923 45.1C160.975 39.1472 165.986 34.4216 172.115 31.7153C178.245 29.009 185.121 28.4863 191.591 30.2349C198.061 31.9836 203.732 35.8972 207.653 41.3199C211.575 46.7427 213.508 53.345 213.13 60.0205C212.751 66.6959 210.084 73.0388 205.575 77.9861L211.679 84.8111L208.633 86.0999C203.921 88.0935 199.31 86.1536 196.721 84.6054C192.744 86.5287 188.381 87.5283 183.96 87.5292ZM183.96 34.0122C180.233 34.0134 176.554 34.8645 173.207 36.5005C169.859 38.1366 166.931 40.5143 164.646 43.4519C162.36 46.3896 160.779 49.8094 160.021 53.4501C159.264 57.0907 159.351 60.8559 160.276 64.4579C161.201 68.0598 162.939 71.4032 165.358 74.2326C167.777 77.0619 170.812 79.3024 174.231 80.7827C177.651 82.2629 181.365 82.9439 185.089 82.7735C188.813 82.6031 192.448 81.5859 195.718 79.7996L197.022 79.0849L198.234 79.9454C199.619 80.9505 201.193 81.6684 202.861 82.0569L199.02 77.7623L200.704 76.1841C203.149 73.9118 205.097 71.1592 206.425 68.0996C207.752 65.04 208.43 61.7395 208.417 58.4057C208.41 51.9384 205.831 45.7381 201.246 41.165C196.661 36.5919 190.444 34.0195 183.96 34.0122Z" fill="#E6E6E6"/>
<path d="M210.787 58.4059C210.784 52.5437 208.851 46.8446 205.285 42.1851C201.718 37.5256 196.716 34.1638 191.047 32.6167C185.378 31.0696 179.356 31.423 173.908 33.6224C168.46 35.8219 163.887 39.7456 160.893 44.7901C157.899 49.8345 156.649 55.7204 157.336 61.5425C158.023 67.3645 160.609 72.8003 164.695 77.0137C168.781 81.2271 174.142 83.9849 179.953 84.8628C185.764 85.7407 191.704 84.6902 196.858 81.8728C198.712 83.1888 203.236 85.8139 207.706 83.923L202.326 77.9079C205 75.4086 207.131 72.3879 208.587 69.0332C210.042 65.6785 210.791 62.0613 210.787 58.4059Z" fill="white"/>
<path d="M189.312 52.9346H170.143V54.7102H189.312V52.9346Z" fill="#005E5D"/>
<path d="M203.554 59.0771H170.143V60.8528H203.554V59.0771Z" fill="#E6E6E6"/>
<path d="M203.521 65.2192H170.143V66.9948H203.521V65.2192Z" fill="#E6E6E6"/>
<path d="M221.119 90.0172C223.455 90.0172 225.348 88.1288 225.348 85.7994C225.348 83.4699 223.455 81.5815 221.119 81.5815C218.784 81.5815 216.891 83.4699 216.891 85.7994C216.891 88.1288 218.784 90.0172 221.119 90.0172Z" fill="#E6E6E6"/>
<path d="M221.119 219.472C223.455 219.472 225.348 217.583 225.348 215.254C225.348 212.925 223.455 211.036 221.119 211.036C218.784 211.036 216.891 212.925 216.891 215.254C216.891 217.583 218.784 219.472 221.119 219.472Z" fill="#E6E6E6"/>
<path d="M127.733 154.44C124.638 156.291 119.125 158.611 113.49 156.227L109.848 154.686L117.147 146.526C111.323 140.121 108.101 131.781 108.109 123.134C108.118 114.487 111.357 106.153 117.195 99.7601C123.032 93.3669 131.048 89.3728 139.679 88.5574C148.31 87.7419 156.935 90.1637 163.872 95.35C170.809 100.536 175.559 108.115 177.196 116.606C178.832 125.098 177.238 133.893 172.723 141.275C168.208 148.657 161.097 154.096 152.779 156.53C144.46 158.964 135.53 158.219 127.733 154.44Z" fill="#005E5D"/>
<path opacity="0.1" d="M172.392 122.953C172.392 114.957 169.39 107.251 163.978 101.353C158.565 95.4547 151.135 91.7913 143.15 91.0843C144.085 91.0027 145.03 90.9585 145.985 90.9585C154.489 90.9639 162.643 94.3371 168.654 100.337C174.665 106.336 178.042 114.471 178.042 122.953C178.042 131.434 174.665 139.569 168.654 145.569C162.643 151.568 154.489 154.941 145.985 154.947C145.031 154.947 144.088 154.902 143.155 154.82C151.139 154.112 158.568 150.449 163.979 144.55C169.39 138.652 172.392 130.947 172.392 122.953Z" fill="black"/>
<path d="M147.491 116.573H124.57V118.696H147.491V116.573Z" fill="white"/>
<path d="M164.519 123.917H124.57V126.04H164.519V123.917Z" fill="white"/>
<path d="M164.48 131.261H124.57V133.384H164.48V131.261Z" fill="white"/>
<path d="M0.325287 253H124.26C124.346 253 124.429 252.966 124.49 252.905C124.551 252.844 124.585 252.762 124.585 252.676C124.585 252.589 124.551 252.507 124.49 252.446C124.429 252.385 124.346 252.351 124.26 252.351H0.325287C0.239015 252.351 0.156277 252.385 0.0952741 252.446C0.0342709 252.507 0 252.589 0 252.676C0 252.762 0.0342709 252.844 0.0952741 252.905C0.156277 252.966 0.239015 253 0.325287 253Z" fill="#CCCCCC"/>
<path d="M59.7832 113.401L60.273 110.958C60.273 110.958 67.4779 108.515 68.284 113.401H59.7832Z" fill="#E6E6E6"/>
<path d="M73.6104 247.911L78.3338 247.91L80.5809 229.738L73.6094 229.739L73.6104 247.911Z" fill="#9F616A"/>
<path d="M72.4062 246.372L81.7084 246.372H81.7088C83.281 246.372 84.7888 246.995 85.9005 248.104C87.0122 249.213 87.6368 250.717 87.6369 252.285V252.477L72.4065 252.477L72.4062 246.372Z" fill="#2F2E41"/>
<path d="M50.8408 247.911L55.5643 247.91L57.8114 229.738L50.8398 229.739L50.8408 247.911Z" fill="#9F616A"/>
<path d="M49.6348 246.372L58.937 246.372H58.9373C60.5095 246.372 62.0173 246.995 63.129 248.104C64.2407 249.213 64.8653 250.717 64.8654 252.285V252.477L49.635 252.477L49.6348 246.372Z" fill="#2F2E41"/>
<path d="M52.9246 123.661L47.5363 123.173L44.1074 139.296L44.5973 153.953L49.9857 173.496L57.3333 169.099L53.4145 149.067L52.9246 123.661Z" fill="#2F2E41"/>
<path d="M49.5151 171.786L50.7213 182.046L51.8542 205.987L49.252 241.662L58.5587 241.164L63.1206 204.032L65.9063 186.932L69.825 206.475L72.2744 243.118L81.8262 242.355V206.346L82.0711 180.092L78.6423 169.832L49.5151 171.786Z" fill="#2F2E41"/>
<path d="M69.5795 113.89C69.5795 113.89 66.1506 109.004 59.7827 112.424L56.8437 116.333L47.5367 123.173L49.4961 146.136L47.0469 174.962L81.8255 174.473L75.9474 145.647V114.867L69.5795 113.89Z" fill="#2F2E41"/>
<path opacity="0.25" d="M50.7206 131.282L47.9121 164.778L51.4555 146.624L50.7206 131.282Z" fill="black"/>
<path d="M109.184 159.366C108.684 159.536 108.153 159.594 107.628 159.536C107.103 159.479 106.597 159.307 106.145 159.034C105.694 158.76 105.308 158.391 105.015 157.953C104.723 157.514 104.53 157.017 104.45 156.496L96.4355 154.521L96.4513 149.37L107.73 152.319C108.616 152.244 109.499 152.495 110.212 153.026C110.924 153.557 111.416 154.33 111.596 155.198C111.775 156.067 111.628 156.971 111.184 157.74C110.739 158.508 110.028 159.087 109.184 159.366Z" fill="#9F616A"/>
<path d="M100.803 149.308L99.4551 157.009L102.833 157.597L104.181 149.897L100.803 149.308Z" fill="#E6E6E6"/>
<path d="M68.8465 107.044C73.6133 104.445 75.3652 98.484 72.7594 93.7295C70.1537 88.975 64.1771 87.2277 59.4103 89.8267C54.6435 92.4258 52.8917 98.387 55.4974 103.141C58.1032 107.896 64.0798 109.643 68.8465 107.044Z" fill="#9F616A"/>
<path d="M64.8636 107.09C62.457 107.666 59.9217 107.33 57.7499 106.146C55.5781 104.962 53.9248 103.016 53.1112 100.685C52.2976 98.3532 52.3817 95.8035 53.3472 93.5305C54.3127 91.2576 56.0906 89.4236 58.3357 88.3849C60.0647 87.6152 61.9554 87.2768 63.8448 87.3988C66.7866 87.5531 69.6458 88.6376 72.5906 88.5577L73.0174 89.242L74.626 88.8529L74.9707 90.1267L75.3944 90.1121C76.1534 91.5189 74.9322 93.533 73.3306 93.5159C72.6965 93.5092 72.097 93.2457 71.4769 93.1132C70.8568 92.9806 70.1266 93.0137 69.6991 93.4808C69.1434 94.0878 69.3853 95.0351 69.5012 95.8489C69.617 96.6628 69.3276 97.7589 68.504 97.7855C68.0832 97.7991 67.683 97.4981 67.2696 97.5772C66.788 97.6694 66.5445 98.2494 66.6149 98.7334C66.7341 99.2083 66.9286 99.6612 67.191 100.075C68.385 102.452 67.3768 105.686 65.0417 106.969" fill="#2F2E41"/>
<path d="M73.61 116.754L75.948 114.867C75.948 114.867 80.6666 114.54 80.5814 119.529L88.1315 143.085L102.616 148.203L100.664 158.261L80.1709 150.474L69.7617 133.265L73.61 116.754Z" fill="#2F2E41"/>
</g>
<defs>
<clipPath id="clip0_371_2922">
<rect width="239" height="253" fill="white"/>
</clipPath>
</defs>
</svg>
