<svg width="168" height="152" viewBox="0 0 168 152" fill="none" xmlns="http://www.w3.org/2000/svg">
<g clip-path="url(#clip0_380_3429)">
<path d="M161.228 60.2524C161.228 86.6212 144.36 109.032 120.866 117.201C111.409 120.47 101.291 121.331 91.4217 119.704C90.485 119.551 89.555 119.375 88.6316 119.175C87.3806 118.908 86.1442 118.602 84.9227 118.255C59.6993 111.127 41.2119 87.8573 41.2119 60.2524C41.2119 26.9757 68.0783 0 101.22 0C134.362 0 161.228 26.9757 161.228 60.2524Z" fill="#E6E6E6"/>
<path d="M63.6344 78.8489C63.5288 78.9057 63.4499 79.0022 63.415 79.1173C63.3802 79.2324 63.3923 79.3567 63.4486 79.4629L86.0101 121.893C86.0666 121.999 86.1628 122.078 86.2774 122.113C86.3921 122.148 86.5158 122.136 86.6216 122.079L118.514 104.983C118.62 104.926 118.699 104.829 118.734 104.714C118.769 104.599 118.757 104.475 118.7 104.369L96.1388 61.9386C96.0822 61.8326 95.9861 61.7533 95.8715 61.7184C95.7568 61.6834 95.633 61.6955 95.5273 61.7521L63.6344 78.8489Z" fill="#3F3D56"/>
<path d="M66.5987 80.089L87.2448 118.916L115.55 103.743L94.9036 64.9155L66.5987 80.089ZM64.8051 81.0504L64.8091 81.0484L64.8047 81.0506L64.8051 81.0504Z" fill="white"/>
<path d="M73.7352 84.3572C73.2955 84.593 73.2019 85.2811 73.5262 85.891C73.8505 86.5009 74.472 86.8056 74.9118 86.5699L95.6421 75.457C96.0819 75.2212 96.1755 74.5331 95.8512 73.9232C95.5268 73.3133 94.9053 73.0086 94.4656 73.2443L73.7352 84.3572Z" fill="#005E5D"/>
<path d="M76.2899 89.1609C75.8502 89.3967 75.7566 90.0848 76.0809 90.6947C76.4052 91.3046 77.0267 91.6093 77.4665 91.3736L98.1968 80.2607C98.6365 80.025 98.7302 79.3368 98.4058 78.7269C98.0815 78.117 97.46 77.8123 97.0202 78.048L76.2899 89.1609Z" fill="#005E5D"/>
<path d="M78.8436 93.9642C78.4039 94.1999 78.3103 94.888 78.6346 95.4979C78.9589 96.1078 79.5804 96.4126 80.0202 96.1768L100.751 85.0639C101.19 84.8282 101.284 84.14 100.96 83.5301C100.635 82.9202 100.014 82.6155 99.5739 82.8512L78.8436 93.9642Z" fill="#005E5D"/>
<path d="M81.3983 98.7679C80.9586 99.0036 80.865 99.6917 81.1893 100.302C81.5136 100.912 82.1351 101.216 82.5749 100.981L103.305 89.8676C103.745 89.6319 103.839 88.9437 103.514 88.3339C103.19 87.724 102.568 87.4192 102.129 87.6549L81.3983 98.7679Z" fill="#005E5D"/>
<path d="M83.952 103.571C83.5123 103.807 83.4187 104.495 83.743 105.105C84.0673 105.715 84.6888 106.019 85.1286 105.784L105.859 94.6708C106.299 94.4351 106.392 93.747 106.068 93.1371C105.744 92.5272 105.122 92.2224 104.682 92.4582L83.952 103.571Z" fill="#005E5D"/>
<path d="M87.9775 60.5179L106.762 61.6696L112.022 45.9177L95.5465 42.4224L87.9775 60.5179Z" fill="#2F2E41"/>
<path d="M101.525 56.5346C105.674 56.5346 109.038 53.1574 109.038 48.9914C109.038 44.8254 105.674 41.4482 101.525 41.4482C97.3762 41.4482 94.0127 44.8254 94.0127 48.9914C94.0127 53.1574 97.3762 56.5346 101.525 56.5346Z" fill="#FFB8B8"/>
<path d="M120.816 116.614L120.865 117.201C111.408 120.47 101.291 121.33 91.4209 119.704L88.6309 119.175L91.2858 113.263L93.0263 109.388L92.3996 95.9812L92.3332 94.5938L92.2513 92.8241L93.385 92.8174L101.445 92.7685L109.127 92.7196L110.298 92.7129C117.643 101.784 123.704 109.157 120.816 116.614Z" fill="#2F2E41"/>
<path d="M110.188 92.6021L92.2519 94.6031L91.5876 82.1525C89.4827 76.7621 90.8722 71.9509 95.2407 67.6333L96.1288 64.1036C96.3619 63.1771 96.8436 62.3326 97.5214 61.6618C98.1992 60.991 99.0472 60.5197 99.9732 60.299C102.909 58.6084 106.235 57.8025 109.966 57.9181C111.457 58.5024 112.72 59.5524 113.571 60.9131C114.421 62.2738 114.813 63.873 114.688 65.4745C113.917 75.2593 112.531 84.4187 110.188 92.6021Z" fill="#005E5D"/>
<path d="M95.8418 40.079C95.8418 40.079 91.9572 41.5023 91.8575 46.6771C91.852 47.5479 91.9677 48.4152 92.2014 49.2538C92.4533 50.2048 92.6554 52.2684 90.9615 55.0191C89.8547 56.8046 88.8541 58.6542 87.9648 60.5583L92.3388 60.9821L93.0621 53.7018C93.4127 50.1722 94.279 46.7136 95.6332 43.4373L95.6614 43.3689C95.6614 43.3689 97.6681 46.8708 101.482 46.7629L100.081 45.4338C100.081 45.4338 104.858 47.24 107.456 47.6026C107.752 47.6441 108.032 47.7659 108.264 47.9551C108.497 48.1442 108.673 48.3935 108.775 48.6761C108.877 48.9586 108.901 49.2638 108.843 49.5586C108.785 49.8534 108.648 50.1267 108.446 50.3491C108.431 50.3659 108.415 50.3827 108.4 50.3996C106.811 52.0869 103.65 56.0087 105.641 58.9634C107.632 61.9182 106.021 62.785 106.021 62.785L108.971 61.0592L110.31 60.2001L110.341 61.2941L117.401 60.2732C117.401 60.2732 119.3 59.9458 115.083 55.4115C115.083 55.4115 113.954 53.6364 114.382 52.0656C114.737 50.8711 114.803 49.6089 114.576 48.3834C113.517 43.2817 109.639 33.189 95.8418 40.079Z" fill="#2F2E41"/>
<path d="M101.22 151.444C116.14 151.444 128.235 150.747 128.235 149.888C128.235 149.028 116.14 148.332 101.22 148.332C86.3 148.332 74.2051 149.028 74.2051 149.888C74.2051 150.747 86.3 151.444 101.22 151.444Z" fill="#E6E6E6"/>
<path d="M0.164377 71.7097C0.107661 71.725 0.0592812 71.7622 0.0298544 71.8132C0.000427555 71.8642 -0.00764352 71.9249 0.00741583 71.9818L6.05034 94.7547C6.06551 94.8117 6.10256 94.8603 6.15336 94.8898C6.20416 94.9194 6.26457 94.9275 6.32131 94.9123L23.4387 90.3331C23.4955 90.3178 23.5438 90.2806 23.5733 90.2296C23.6027 90.1786 23.6108 90.118 23.5957 90.061L17.5528 67.2881C17.5376 67.2311 17.5006 67.1826 17.4498 67.153C17.399 67.1235 17.3386 67.1154 17.2818 67.1305L0.164377 71.7097Z" fill="#F2F2F2"/>
<path d="M4.37074 75.4709C4.13473 75.5341 4.01351 75.8518 4.10037 76.1792C4.18723 76.5065 4.44986 76.7216 4.68587 76.6585L15.8122 73.682C16.0482 73.6188 16.1694 73.301 16.0826 72.9737C15.9957 72.6464 15.7331 72.4313 15.4971 72.4944L4.37074 75.4709Z" fill="white"/>
<path d="M5.05434 78.0491C4.81833 78.1122 4.69711 78.43 4.78397 78.7573C4.87083 79.0847 5.13346 79.2998 5.36947 79.2366L16.4958 76.2601C16.7318 76.197 16.853 75.8792 16.7662 75.5518C16.6793 75.2245 16.4167 75.0094 16.1807 75.0725L5.05434 78.0491Z" fill="white"/>
<path d="M5.73891 80.6272C5.5029 80.6903 5.38168 81.0081 5.46854 81.3354C5.5554 81.6628 5.81803 81.8779 6.05404 81.8147L17.1804 78.8382C17.4164 78.7751 17.5376 78.4573 17.4507 78.13C17.3639 77.8026 17.1013 77.5875 16.8652 77.6506L5.73891 80.6272Z" fill="white"/>
<path d="M6.4225 83.2048C6.18649 83.2679 6.06527 83.5857 6.15213 83.9131C6.23899 84.2404 6.50162 84.4555 6.73763 84.3924L17.864 81.4159C18.1 81.3527 18.2212 81.0349 18.1343 80.7076C18.0475 80.3803 17.7848 80.1651 17.5488 80.2283L6.4225 83.2048Z" fill="white"/>
<path d="M7.10707 85.7829C6.87106 85.8461 6.74984 86.1639 6.8367 86.4912C6.92356 86.8185 7.18619 87.0336 7.4222 86.9705L18.5485 83.994C18.7845 83.9309 18.9058 83.6131 18.8189 83.2857C18.732 82.9584 18.4694 82.7433 18.2334 82.8064L7.10707 85.7829Z" fill="white"/>
<path d="M7.79067 88.361C7.55465 88.4242 7.43344 88.742 7.5203 89.0693C7.60715 89.3967 7.86979 89.6118 8.1058 89.5486L19.2321 86.5721C19.4681 86.509 19.5894 86.1912 19.5025 85.8638C19.4156 85.5365 19.153 85.3214 18.917 85.3845L7.79067 88.361Z" fill="white"/>
<path d="M43.9092 151.948C43.9092 151.977 44.0084 152 44.1306 152H67.6024C67.7246 152 67.8239 151.977 67.8239 151.948V147.827C67.8239 147.799 67.7246 147.775 67.6024 147.775H44.1306C44.0084 147.775 43.9092 147.799 43.9092 147.827V151.948Z" fill="#F2F2F2"/>
<path d="M48.6113 151.227C48.6113 151.284 48.886 151.33 49.2233 151.33C49.5607 151.33 49.8354 151.284 49.8354 151.227V148.548C49.8354 148.492 49.5607 148.445 49.2233 148.445C48.886 148.445 48.6113 148.492 48.6113 148.548V151.227Z" fill="white"/>
<path d="M51.2686 151.227C51.2686 151.284 51.5432 151.33 51.8806 151.33C52.218 151.33 52.4926 151.284 52.4926 151.227V148.548C52.4926 148.492 52.218 148.445 51.8806 148.445C51.5432 148.445 51.2686 148.492 51.2686 148.548V151.227Z" fill="white"/>
<path d="M53.9258 151.227C53.9258 151.284 54.2004 151.33 54.5378 151.33C54.8752 151.33 55.1498 151.284 55.1498 151.227V148.548C55.1498 148.492 54.8752 148.445 54.5378 148.445C54.2004 148.445 53.9258 148.492 53.9258 148.548V151.227Z" fill="white"/>
<path d="M56.583 151.227C56.583 151.284 56.8576 151.33 57.195 151.33C57.5324 151.33 57.807 151.284 57.807 151.227V148.548C57.807 148.492 57.5324 148.445 57.195 148.445C56.8576 148.445 56.583 148.492 56.583 148.548V151.227Z" fill="white"/>
<path d="M59.2402 151.227C59.2402 151.284 59.5149 151.33 59.8522 151.33C60.1896 151.33 60.4643 151.284 60.4643 151.227V148.548C60.4643 148.492 60.1896 148.445 59.8522 148.445C59.5149 148.445 59.2402 148.492 59.2402 148.548V151.227Z" fill="white"/>
<path d="M61.8975 151.227C61.8975 151.284 62.1721 151.33 62.5095 151.33C62.8469 151.33 63.1215 151.284 63.1215 151.227V148.548C63.1215 148.492 62.8469 148.445 62.5095 148.445C62.1721 148.445 61.8975 148.492 61.8975 148.548V151.227Z" fill="white"/>
<path d="M0.792846 55.2758C0.741083 55.3036 0.702425 55.3509 0.685356 55.4073C0.668287 55.4637 0.674202 55.5246 0.701801 55.5766L11.7565 76.3665C11.7842 76.4185 11.8313 76.4573 11.8874 76.4744C11.9436 76.4915 12.0043 76.4856 12.0561 76.4579L27.6829 68.0808C27.7347 68.053 27.7734 68.0057 27.7904 67.9493C27.8075 67.8929 27.8016 67.832 27.774 67.7799L16.7193 46.9901C16.6916 46.9381 16.6445 46.8993 16.5883 46.8822C16.5322 46.865 16.4715 46.871 16.4197 46.8987L0.792846 55.2758Z" fill="#E6E6E6"/>
<path d="M2.24524 55.8834L12.3614 74.9079L26.2302 67.4734L16.1141 48.4487L2.24524 55.8834ZM1.36643 56.3545L1.36837 56.3535L1.36621 56.3546L1.36643 56.3545Z" fill="white"/>
<path d="M5.74199 57.9749C5.52654 58.0904 5.48066 58.4276 5.63957 58.7264C5.79847 59.0253 6.10302 59.1746 6.31848 59.0591L16.4759 53.614C16.6914 53.4985 16.7373 53.1613 16.5784 52.8624C16.4195 52.5636 16.1149 52.4143 15.8994 52.5298L5.74199 57.9749Z" fill="#005E5D"/>
<path d="M6.99297 60.3284C6.77752 60.4439 6.73164 60.7811 6.89054 61.0799C7.04944 61.3788 7.354 61.5281 7.56945 61.4126L17.7269 55.9675C17.9424 55.852 17.9882 55.5148 17.8293 55.216C17.6704 54.9171 17.3659 54.7678 17.1504 54.8833L6.99297 60.3284Z" fill="#005E5D"/>
<path d="M8.24492 62.6824C8.02947 62.7979 7.98359 63.1351 8.1425 63.4339C8.3014 63.7328 8.60596 63.8821 8.82141 63.7666L18.9789 58.3215C19.1943 58.206 19.2402 57.8688 19.0813 57.57C18.9224 57.2711 18.6178 57.1218 18.4024 57.2373L8.24492 62.6824Z" fill="#005E5D"/>
<path d="M9.4959 65.0359C9.28044 65.1515 9.23457 65.4886 9.39347 65.7875C9.55238 66.0863 9.85693 66.2356 10.0724 66.1201L20.2298 60.675C20.4453 60.5595 20.4912 60.2223 20.3323 59.9235C20.1734 59.6246 19.8688 59.4753 19.6533 59.5908L9.4959 65.0359Z" fill="#005E5D"/>
<path d="M10.7479 67.3895C10.5324 67.505 10.4865 67.8421 10.6454 68.141C10.8043 68.4398 11.1089 68.5891 11.3243 68.4736L21.4818 63.0285C21.6973 62.913 21.7431 62.5758 21.5842 62.277C21.4253 61.9782 21.1208 61.8288 20.9053 61.9443L10.7479 67.3895Z" fill="#005E5D"/>
<path d="M11.9988 69.743C11.7834 69.8585 11.7375 70.1957 11.8964 70.4945C12.0553 70.7933 12.3599 70.9426 12.5753 70.8271L22.7328 65.382C22.9482 65.2665 22.9941 64.9294 22.8352 64.6305C22.6763 64.3317 22.3717 64.1824 22.1563 64.2979L11.9988 69.743Z" fill="#005E5D"/>
<path d="M152.641 108.404C152.59 108.374 152.53 108.366 152.473 108.381C152.416 108.395 152.367 108.432 152.337 108.483L140.396 128.772C140.366 128.823 140.358 128.883 140.372 128.941C140.387 128.998 140.423 129.047 140.474 129.077L155.725 138.126C155.775 138.156 155.836 138.164 155.892 138.149C155.949 138.135 155.998 138.098 156.028 138.047L167.969 117.758C167.999 117.707 168.008 117.647 167.993 117.589C167.978 117.532 167.942 117.483 167.891 117.453L152.641 108.404Z" fill="#E6E6E6"/>
<path d="M152.878 109.966L141.951 128.533L155.486 136.564L166.413 117.997L152.878 109.966ZM152.021 109.457L152.023 109.458L152.021 109.457L152.021 109.457Z" fill="white"/>
<path d="M152.917 114.053C152.706 113.928 152.396 114.064 152.224 114.356C152.052 114.647 152.084 114.986 152.294 115.111L162.207 120.993C162.417 121.117 162.728 120.981 162.9 120.69C163.071 120.398 163.04 120.059 162.83 119.935L152.917 114.053Z" fill="#005E5D"/>
<path d="M151.565 116.35C151.355 116.225 151.044 116.361 150.872 116.652C150.701 116.944 150.732 117.283 150.942 117.408L160.855 123.289C161.066 123.414 161.376 123.278 161.548 122.987C161.72 122.695 161.688 122.356 161.478 122.231L151.565 116.35Z" fill="#005E5D"/>
<path d="M150.214 118.646C150.003 118.522 149.693 118.658 149.521 118.949C149.349 119.241 149.381 119.58 149.591 119.705L159.504 125.586C159.714 125.711 160.025 125.575 160.196 125.284C160.368 124.992 160.337 124.653 160.127 124.528L150.214 118.646Z" fill="#005E5D"/>
<path d="M148.862 120.943C148.652 120.819 148.341 120.954 148.169 121.246C147.998 121.538 148.029 121.877 148.239 122.001L158.152 127.883C158.363 128.008 158.673 127.872 158.845 127.58C159.017 127.289 158.985 126.95 158.775 126.825L148.862 120.943Z" fill="#005E5D"/>
<path d="M147.509 123.24C147.299 123.115 146.988 123.251 146.817 123.543C146.645 123.835 146.676 124.174 146.887 124.298L156.8 130.18C157.01 130.305 157.321 130.169 157.492 129.877C157.664 129.586 157.633 129.247 157.422 129.122L147.509 123.24Z" fill="#005E5D"/>
<path d="M146.158 125.537C145.948 125.412 145.637 125.548 145.465 125.84C145.294 126.132 145.325 126.47 145.535 126.595L155.448 132.477C155.658 132.602 155.969 132.466 156.141 132.174C156.312 131.883 156.281 131.544 156.071 131.419L146.158 125.537Z" fill="#005E5D"/>
<path d="M97.5659 71.4805L97.3357 72.9123L94.9087 87.9332L93.3853 92.8178L92.8494 94.5365L92.4 95.9816L86.9372 113.502L85.4384 117.037C84.616 117.343 83.9093 117.898 83.4169 118.627C82.9246 119.355 82.6714 120.22 82.6926 121.1C82.7139 121.981 83.0085 122.832 83.5354 123.536C84.0623 124.239 84.795 124.76 85.6312 125.025C86.4673 125.29 87.365 125.286 88.1988 125.014C89.0326 124.742 89.7608 124.214 90.2815 123.506C90.8022 122.798 91.0894 121.944 91.103 121.063C91.1165 120.183 90.8558 119.321 90.3571 118.596L101.049 93.6227L101.445 92.7689L102.659 90.1565L104.951 72.7945L105.095 71.7028L97.5659 71.4805Z" fill="#FFB8B8"/>
<path d="M106.423 73.259C102.943 72.0034 99.6052 71.8699 96.459 73.259L97.4859 64.3222C97.4482 63.2063 97.8482 62.12 98.5998 61.297C99.3515 60.474 100.395 59.9801 101.505 59.9214C102.63 59.862 103.731 60.2535 104.568 61.0097C105.405 61.7659 105.908 62.8249 105.968 63.9538L105.968 63.9685L106.423 73.259Z" fill="#005E5D"/>
</g>
<defs>
<clipPath id="clip0_380_3429">
<rect width="168" height="152" fill="white"/>
</clipPath>
</defs>
</svg>
