<svg width="222" height="191" viewBox="0 0 222 191" fill="none" xmlns="http://www.w3.org/2000/svg">
<g clip-path="url(#clip0_345_2138)">
<path d="M71.0393 26.3251C69.2586 16.7948 72.0621 5.95252 79.8542 0.183838C79.4126 10.7178 82.7112 21.0685 89.1665 29.4045C91.6677 32.6103 94.7834 35.9155 94.6866 39.9805C94.6264 42.5098 93.2585 44.8661 91.4559 46.6413C89.6531 48.4165 87.4325 49.6964 85.2384 50.9563L84.8969 51.4876C78.4652 44.2329 72.82 35.8554 71.0393 26.3251Z" fill="#F0F0F0"/>
<path d="M79.9948 0.32967C76.7211 7.65642 75.8391 15.8284 77.4743 23.6849C77.7963 25.3825 78.3838 27.0187 79.2153 28.5333C80.073 29.9826 81.3031 31.1757 82.7778 31.9888C84.1376 32.7745 85.6195 33.4208 86.7647 34.5234C87.3425 35.0965 87.7926 35.7852 88.0855 36.5445C88.3785 37.3038 88.5076 38.1164 88.4644 38.929C88.4096 40.9567 87.6294 42.8438 86.8024 44.6627C85.8841 46.6822 84.8983 48.7653 84.9579 51.0359C84.9651 51.311 84.5378 51.3061 84.5306 51.0314C84.427 47.0811 87.2829 43.9085 87.9193 40.1181C88.2162 38.3494 87.9819 36.4805 86.7384 35.1095C85.6511 33.9106 84.1235 33.2429 82.7398 32.4592C81.2895 31.6871 80.0503 30.5716 79.1305 29.2103C78.2246 27.7429 77.575 26.132 77.2095 24.4467C76.3262 20.6656 76.0429 16.7691 76.3699 12.9C76.7187 8.48208 77.8207 4.15643 79.6281 0.110144C79.7401 -0.140249 80.106 0.0809144 79.9948 0.32967Z" fill="white"/>
<path d="M76.799 21.1863C75.4436 21.2817 74.0984 20.8922 73.0037 20.0873C71.909 19.2825 71.136 18.1147 70.8228 16.7925C70.7604 16.5248 71.1735 16.4152 71.236 16.6833C71.5254 17.915 72.2455 19.0027 73.2665 19.7501C74.2874 20.4975 75.5419 20.8553 76.8035 20.759C77.0777 20.7384 77.0716 21.1658 76.799 21.1863Z" fill="white"/>
<path d="M82.0353 31.6812C83.8753 29.6005 84.8634 26.9028 84.8027 24.1259C84.7965 23.8507 85.2238 23.8556 85.23 24.1303C85.2878 27.0202 84.2538 29.8255 82.3343 31.9865C82.1512 32.1923 81.8532 31.8859 82.0353 31.6812Z" fill="white"/>
<path d="M77.2198 8.74727C77.7519 8.81964 78.2937 8.75871 78.7964 8.56995C79.2992 8.3812 79.7472 8.07052 80.1002 7.66583C80.2806 7.45774 80.5784 7.76442 80.3992 7.97113C80.0071 8.41643 79.5119 8.75893 78.9569 8.96871C78.4019 9.17849 77.8039 9.24916 77.2153 9.17455C77.1592 9.17217 77.1062 9.14853 77.0669 9.10843C77.0276 9.06833 77.0051 9.01478 77.0039 8.95867C77.0048 8.9021 77.028 8.84816 77.0684 8.80858C77.1088 8.76899 77.1632 8.74696 77.2198 8.74727Z" fill="white"/>
<path d="M111.717 8.06702C111.608 8.20014 111.499 8.33327 111.391 8.46989C109.936 10.2672 108.629 12.1799 107.483 14.1889C107.392 14.3428 107.302 14.5002 107.216 14.6564C104.507 19.526 102.726 24.8562 101.963 30.376C101.662 32.5727 101.528 34.7892 101.562 37.0063C101.61 40.0681 101.906 43.3841 100.968 46.2002C100.873 46.4951 100.76 46.7838 100.63 47.0648L85.5692 51.8632C85.5295 51.857 85.4908 51.8542 85.4509 51.848L84.8583 52.067C84.8485 51.9528 84.8409 51.8341 84.8311 51.7199C84.8251 51.6537 84.8226 51.5864 84.8166 51.5202C84.8137 51.4757 84.811 51.4311 84.8058 51.3911C84.8048 51.3763 84.8039 51.3615 84.804 51.3501C84.7988 51.3101 84.7983 51.2724 84.7942 51.2358C84.7494 50.5726 84.708 49.9083 84.6736 49.2418C84.6725 49.2383 84.6725 49.2383 84.6747 49.2338C84.4162 44.1573 84.5793 39.0145 85.5177 34.06C85.546 33.911 85.573 33.7585 85.6081 33.6073C86.0435 31.3764 86.6605 29.1848 87.453 27.0544C87.8907 25.8892 88.387 24.747 88.9402 23.632C90.375 20.7539 92.2536 18.1194 94.5072 15.8251C99.0002 11.252 104.906 8.16685 111.234 8.06971C111.396 8.06733 111.554 8.06595 111.717 8.06702Z" fill="#F0F0F0"/>
<path d="M111.745 8.26894C104.72 12.1479 99.0956 18.1418 95.671 25.3993C94.906 26.9485 94.39 28.6087 94.142 30.3187C93.9543 31.9922 94.2181 33.6854 94.906 35.2225C95.5187 36.6686 96.3129 38.0768 96.5634 39.6466C96.6797 40.4521 96.6244 41.273 96.4011 42.0556C96.1779 42.8382 95.7917 43.5648 95.268 44.1876C94.0034 45.7736 92.2443 46.8107 90.4889 47.765C88.5398 48.8246 86.4985 49.8943 85.179 51.7431C85.0192 51.9671 84.681 51.7059 84.8406 51.4823C87.1362 48.2658 91.3266 47.4522 94.1169 44.8088C95.4188 43.5754 96.357 41.9421 96.1896 40.0988C96.0432 38.4869 95.2255 37.034 94.5925 35.5752C93.8993 34.0856 93.5815 32.4489 93.6668 30.8081C93.8269 29.0911 94.2781 27.4138 95.0009 25.8481C96.5722 22.2973 98.6919 19.0155 101.283 16.1232C104.221 12.8058 107.705 10.0154 111.584 7.8729C111.824 7.74039 111.984 8.1373 111.745 8.26894Z" fill="white"/>
<path d="M96.6364 22.9975C95.4968 22.2576 94.6573 21.1367 94.2678 19.835C93.8783 18.5333 93.9641 17.1355 94.5101 15.8913C94.6214 15.6399 95.0173 15.8011 94.9058 16.0528C94.3953 17.2105 94.3154 18.5126 94.6806 19.724C95.0458 20.9354 95.8319 21.9764 96.8972 22.659C97.1286 22.8076 96.8664 23.1453 96.6364 22.9975Z" fill="white"/>
<path d="M94.4989 34.5303C97.2207 33.9767 99.6339 32.4177 101.257 30.1639C101.418 29.9405 101.756 30.2016 101.596 30.4247C99.9021 32.7669 97.3875 34.3842 94.5538 34.954C94.2837 35.0082 94.2302 34.5841 94.4989 34.5303Z" fill="white"/>
<path d="M104.46 13.3189C104.842 13.6971 105.311 13.9746 105.826 14.1266C106.341 14.2786 106.886 14.3002 107.411 14.1897C107.681 14.1321 107.734 14.5563 107.466 14.6134C106.885 14.7329 106.284 14.7082 105.714 14.5415C105.145 14.3749 104.625 14.0713 104.2 13.6574C104.156 13.6217 104.128 13.5709 104.121 13.5152C104.114 13.4596 104.128 13.4032 104.161 13.3577C104.196 13.3131 104.247 13.284 104.303 13.2767C104.359 13.2694 104.415 13.2846 104.46 13.3189Z" fill="white"/>
<path d="M157.007 72.245C157.047 72.4197 157.073 72.5973 157.085 72.7761L170.995 80.8007L174.376 78.8543L177.98 83.573L172.33 87.6004C171.873 87.9258 171.323 88.0943 170.763 88.0806C170.203 88.067 169.662 87.8719 169.222 87.5247L154.878 76.2089C154.231 76.4485 153.526 76.4853 152.857 76.3145C152.188 76.1437 151.587 75.7734 151.134 75.2527C150.681 74.732 150.397 74.0857 150.32 73.3998C150.243 72.7138 150.377 72.0207 150.704 71.4126C151.03 70.8046 151.534 70.3104 152.149 69.9957C152.763 69.6811 153.459 69.561 154.143 69.6513C154.827 69.7417 155.468 70.0382 155.979 70.5015C156.491 70.9649 156.85 71.5729 157.007 72.245Z" fill="#FFB6B6"/>
<path d="M171.189 79.915C171.233 79.7103 171.321 79.5175 171.447 79.3498C171.572 79.1821 171.732 79.0435 171.916 78.9433L178.338 75.4443C179.193 74.7988 180.27 74.5188 181.331 74.6657C182.392 74.8126 183.352 75.3744 184 76.228C184.647 77.0815 184.93 78.1571 184.786 79.2188C184.642 80.2806 184.082 81.2418 183.231 81.8917L178.083 87.1205C177.937 87.2697 177.759 87.3855 177.563 87.46C177.368 87.5345 177.158 87.566 176.949 87.5523C176.74 87.5385 176.537 87.4799 176.353 87.3804C176.168 87.2809 176.008 87.1429 175.882 86.9757L171.45 81.1001C171.324 80.933 171.235 80.7406 171.19 80.536C171.145 80.3315 171.145 80.1197 171.189 79.915Z" fill="#3F3D56"/>
<path d="M182.373 59.8568C183.297 56.912 185.399 54.2112 188.305 53.2157C191.211 52.2202 195.466 53.7367 197.651 55.914C201.647 59.8968 201.77 64.7725 199.024 69.0962C198.478 69.0673 196.594 69.0459 196.041 69.0252L195.259 66.4192V68.9996C190.945 68.8662 186.453 68.9497 181.959 69.036C181.557 65.9748 181.449 62.8015 182.373 59.8568Z" fill="#2F2E41"/>
<path d="M181.426 183.178H177.491L175.619 168L181.427 168L181.426 183.178Z" fill="#FFB6B6"/>
<path d="M205.678 183.178H201.743L199.871 168L205.679 168L205.678 183.178Z" fill="#FFB6B6"/>
<path d="M194.188 89.9578L195.079 92.276L194.901 94.5945L177.451 100.638L178.317 90.493L180.279 88.1748L194.188 89.9578Z" fill="#FFB6B6"/>
<path d="M188.67 69.0964C192.112 69.0964 194.902 66.3061 194.902 62.864C194.902 59.4219 192.112 56.6316 188.67 56.6316C185.228 56.6316 182.438 59.4219 182.438 62.864C182.438 66.3061 185.228 69.0964 188.67 69.0964Z" fill="#FFB7B7"/>
<path d="M198.094 100.595V104.556C198.094 104.556 202.731 110.581 200.234 115.217L207.387 176.919H199.898L187.395 124.847L182.066 175.849H175.646L174.881 135.286C174.679 124.616 176.461 114.002 180.134 103.983L198.094 100.595Z" fill="#2F2E41"/>
<path d="M184.388 54.7484C185.586 54.0183 186.958 53.6234 188.36 53.6049C189.762 53.5864 191.144 53.9451 192.36 54.6433C193.577 55.3415 194.583 56.3537 195.274 57.574C195.966 58.7944 196.316 60.178 196.29 61.5802C192.806 61.7404 189.146 61.7822 185.436 61.7894L184.559 59.643L184.042 61.7909C182.911 61.7908 181.778 61.7893 180.643 61.7865C180.597 60.3882 180.918 59.0022 181.576 57.7671C182.233 56.532 183.203 55.4911 184.388 54.7484Z" fill="#2F2E41"/>
<path d="M183.186 190.65H180.394L179.896 188.014L178.619 190.65H171.214C170.859 190.65 170.513 190.536 170.227 190.326C169.941 190.116 169.73 189.819 169.624 189.48C169.519 189.142 169.524 188.778 169.64 188.442C169.756 188.107 169.976 187.817 170.268 187.615L176.182 183.531V180.866L182.402 181.237L183.186 190.65Z" fill="#2F2E41"/>
<path d="M207.796 190.65H205.003L204.505 188.014L203.229 190.65H195.823C195.468 190.65 195.122 190.536 194.836 190.326C194.55 190.116 194.339 189.819 194.234 189.48C194.128 189.142 194.133 188.778 194.249 188.442C194.365 188.107 194.585 187.817 194.877 187.615L200.791 183.531V180.866L207.011 181.237L207.796 190.65Z" fill="#2F2E41"/>
<path d="M200.931 113.298C201.278 108.538 200.921 103.753 199.872 99.0964C198.548 93.2199 196.866 85.7426 196.834 85.5493C196.833 85.5455 196.833 85.5417 196.833 85.5379L196.32 74.585C196.318 74.5533 196.305 74.5232 196.282 74.5009C196.26 74.4785 196.23 74.4655 196.198 74.4645L192.652 74.3453C192.619 74.3442 192.588 74.3303 192.565 74.3067C192.542 74.2831 192.529 74.2516 192.529 74.2188C192.529 73.9546 192.477 73.693 192.376 73.4489C192.275 73.2048 192.127 72.9831 191.94 72.7962C191.753 72.6094 191.531 72.4613 191.287 72.3602C191.043 72.2591 190.782 72.207 190.518 72.207H183.435C182.976 72.2072 182.533 72.3748 182.189 72.6784C181.845 72.982 181.624 73.4006 181.567 73.8558C181.564 73.8872 181.549 73.9162 181.525 73.937C181.502 73.9579 181.471 73.9691 181.44 73.9683L178.684 73.8757C178.656 73.8748 178.629 73.8829 178.606 73.8989C178.584 73.9149 178.567 73.9378 178.559 73.9642L178.367 74.5733C175.585 83.5329 174.812 92.9958 176.104 102.288C176.438 104.761 176.287 108.479 176.161 110.55C176.148 110.753 176.176 110.956 176.242 111.148C176.308 111.339 176.411 111.516 176.546 111.668C176.681 111.82 176.844 111.943 177.027 112.032C177.209 112.12 177.408 112.171 177.61 112.183C182.734 112.478 197.241 119.497 200.714 116.146C200.722 116.138 200.815 114.901 200.931 113.298Z" fill="#3F3D56"/>
<path d="M172.517 72.245C172.557 72.4197 172.583 72.5973 172.594 72.7761L186.505 80.8007L189.886 78.8543L193.49 83.573L187.839 87.6004C187.383 87.9258 186.833 88.0943 186.273 88.0806C185.712 88.067 185.171 87.8719 184.731 87.5247L170.388 76.2089C169.74 76.4485 169.035 76.4853 168.367 76.3145C167.698 76.1437 167.097 75.7734 166.644 75.2527C166.191 74.732 165.907 74.0857 165.83 73.3998C165.753 72.7138 165.887 72.0207 166.213 71.4126C166.54 70.8046 167.044 70.3104 167.658 69.9957C168.273 69.6811 168.968 69.561 169.653 69.6513C170.337 69.7417 170.978 70.0382 171.489 70.5015C172.001 70.9649 172.359 71.5729 172.517 72.245Z" fill="#FFB6B6"/>
<path d="M186.697 79.9154C186.741 79.7107 186.829 79.5179 186.954 79.3502C187.08 79.1826 187.24 79.0439 187.424 78.9438L193.846 75.4447C194.701 74.7995 195.777 74.5197 196.838 74.6667C197.9 74.8137 198.859 75.3755 199.507 76.229C200.154 77.0824 200.437 78.1578 200.293 79.2194C200.149 80.2809 199.59 81.2421 198.738 81.8921L193.591 87.1209C193.444 87.2702 193.267 87.386 193.071 87.4605C192.876 87.535 192.666 87.5664 192.457 87.5527C192.248 87.5389 192.045 87.4803 191.86 87.3808C191.676 87.2813 191.516 87.1433 191.39 86.9761L186.958 81.1005C186.832 80.9334 186.743 80.741 186.698 80.5364C186.653 80.3319 186.653 80.1201 186.697 79.9154Z" fill="#3F3D56"/>
<path d="M16.5138 169.028C25.4766 169.028 32.7424 161.763 32.7424 152.8C32.7424 143.837 25.4766 136.571 16.5138 136.571C7.55095 136.571 0.285156 143.837 0.285156 152.8C0.285156 161.763 7.55095 169.028 16.5138 169.028Z" fill="#F0F0F0"/>
<path d="M159.923 96.4845L42.3164 150.48C40.6424 151.246 38.7328 151.317 37.0065 150.677C35.2802 150.037 33.8782 148.739 33.1082 147.066L4.08585 83.8534C3.31958 82.1793 3.24862 80.2697 3.88854 78.5434C4.52845 76.8172 5.827 75.4152 7.49927 74.6451L125.105 20.6498C126.779 19.8835 128.689 19.8126 130.415 20.4525C132.142 21.0924 133.544 22.391 134.314 24.0632L163.336 87.2762C164.102 88.9503 164.173 90.8599 163.533 92.5862C162.893 94.3125 161.595 95.7144 159.923 96.4845Z" fill="white"/>
<path d="M9.45639 78.9058C8.91313 79.156 8.49128 79.6114 8.28339 80.1722C8.07551 80.733 8.09856 81.3534 8.3475 81.8972L37.3699 145.11C37.62 145.654 38.0755 146.075 38.6363 146.283C39.1971 146.491 39.8174 146.468 40.3613 146.219L157.967 92.2238C158.511 91.9737 158.933 91.5182 159.14 90.9574C159.348 90.3966 159.325 89.7762 159.076 89.2324L130.054 26.0194C129.804 25.4761 129.348 25.0543 128.788 24.8464C128.227 24.6385 127.606 24.6615 127.063 24.9105L9.45639 78.9058Z" fill="#E4E4E4"/>
<path d="M159.923 96.4845L42.3164 150.48C40.6424 151.246 38.7328 151.317 37.0065 150.677C35.2802 150.037 33.8782 148.739 33.1082 147.066L4.08585 83.8534C3.31958 82.1793 3.24862 80.2697 3.88854 78.5434C4.52845 76.8172 5.827 75.4152 7.49927 74.6451L125.105 20.6498C126.779 19.8835 128.689 19.8126 130.415 20.4525C132.142 21.0924 133.544 22.391 134.314 24.0632L163.336 87.2762C164.102 88.9503 164.173 90.8599 163.533 92.5862C162.893 94.3125 161.595 95.7144 159.923 96.4845ZM7.80018 75.3006C6.30159 75.9907 5.13793 77.247 4.56448 78.794C3.99103 80.341 4.05463 82.0523 4.74133 83.5524L33.7637 146.765C34.4537 148.264 35.7101 149.428 37.2571 150.001C38.8041 150.575 40.5153 150.511 42.0155 149.824L159.622 95.829C161.12 95.1389 162.284 93.8826 162.857 92.3356C163.431 90.7886 163.367 89.0773 162.681 87.5772L133.658 24.3642C132.968 22.8656 131.712 21.7019 130.165 21.1285C128.618 20.555 126.907 20.6186 125.406 21.3053L7.80018 75.3006Z" fill="#CACACA"/>
<path d="M130.534 67.7996L37.1033 110.696C36.3507 111.04 35.5103 111.143 34.6968 110.992C33.8832 110.841 33.1361 110.442 32.5575 109.851L5.22149 81.8176C4.77317 81.3578 4.44177 80.7972 4.25515 80.1827C4.06854 79.5682 4.03216 78.918 4.14908 78.2865C4.266 77.6551 4.5328 77.061 4.92704 76.5541C5.32129 76.0472 5.83146 75.6423 6.41468 75.3735L126.152 20.1767C126.728 19.9115 127.358 19.7865 127.991 19.8118C128.625 19.8371 129.243 20.0121 129.795 20.3225C130.348 20.6328 130.819 21.0696 131.17 21.5971C131.522 22.1247 131.743 22.7279 131.816 23.3574L131.832 23.357L132.871 64.0517C132.891 64.8366 132.681 65.6103 132.266 66.2766C131.85 66.9429 131.248 67.4725 130.534 67.7996ZM126.458 20.8298L6.71651 76.0286C6.23816 76.249 5.81972 76.5811 5.49636 76.9968C5.173 77.4126 4.95418 77.8999 4.85828 78.4178C4.76238 78.9357 4.79221 79.469 4.94527 79.973C5.09832 80.4769 5.37013 80.9368 5.73784 81.3139L33.0738 109.347C33.5484 109.832 34.1612 110.159 34.8285 110.283C35.4958 110.407 36.1851 110.322 36.8023 110.04L130.233 67.1441C130.819 66.8758 131.313 66.4415 131.653 65.8949C131.994 65.3484 132.167 64.7139 132.15 64.0701L131.12 23.736C131.106 23.1917 130.958 22.6594 130.687 22.1868C130.417 21.7141 130.034 21.3159 129.572 21.0279C129.11 20.7399 128.583 20.571 128.04 20.5365C127.497 20.5019 126.953 20.6027 126.458 20.8298Z" fill="#CACACA"/>
<path d="M71.9449 125.83L42.8357 139.195C42.6245 139.292 42.3961 139.347 42.1638 139.356C41.9314 139.365 41.6996 139.328 41.4815 139.247C41.2634 139.166 41.0634 139.043 40.8929 138.885C40.7223 138.727 40.5846 138.537 40.4876 138.326C40.3905 138.114 40.3361 137.886 40.3274 137.654C40.3187 137.421 40.3559 137.189 40.4368 136.971C40.5177 136.753 40.6408 136.554 40.7991 136.383C40.9573 136.213 41.1476 136.075 41.359 135.978L70.4682 122.614C70.8947 122.419 71.3812 122.401 71.8209 122.564C72.2606 122.727 72.6175 123.058 72.8132 123.484C73.0089 123.911 73.0274 124.397 72.8646 124.837C72.7018 125.277 72.371 125.634 71.9449 125.83Z" fill="white"/>
<path d="M93.2425 84.5249C93.7422 85.6106 94.023 86.7841 94.0689 87.9783C94.1148 89.1726 93.9249 90.3642 93.5101 91.485C93.0952 92.6058 92.4635 93.6339 91.6511 94.5105C90.8386 95.387 89.8614 96.0948 88.7753 96.5935C87.6892 97.0922 86.5154 97.3719 85.3211 97.4167C84.1268 97.4614 82.9353 97.2704 81.8149 96.8545C80.6945 96.4385 79.667 95.8058 78.7913 94.9926C77.9155 94.1793 77.2086 93.2014 76.7109 92.1148" fill="#CACACA"/>
<path d="M158.873 182.465H29.4637C27.6226 182.463 25.8575 181.731 24.5557 180.429C23.2539 179.127 22.5216 177.362 22.5195 175.521V105.964C22.5216 104.123 23.2539 102.358 24.5558 101.056C25.8576 99.7539 27.6226 99.0216 29.4637 99.0195H158.873C160.714 99.0216 162.479 99.7539 163.781 101.056C165.083 102.358 165.815 104.123 165.817 105.964V175.521C165.815 177.362 165.083 179.127 163.781 180.429C162.479 181.731 160.714 182.463 158.873 182.465Z" fill="white"/>
<path d="M29.4649 103.708C28.8668 103.708 28.2934 103.946 27.8705 104.369C27.4476 104.792 27.2097 105.365 27.209 105.963V175.521C27.2097 176.119 27.4476 176.692 27.8705 177.115C28.2934 177.538 28.8668 177.776 29.4649 177.776H158.874C159.472 177.776 160.045 177.538 160.468 177.115C160.891 176.692 161.129 176.119 161.13 175.521V105.963C161.129 105.365 160.891 104.792 160.468 104.369C160.045 103.946 159.472 103.708 158.874 103.708H29.4649Z" fill="#007C7B"/>
<path d="M158.873 182.465H29.4637C27.6226 182.463 25.8575 181.731 24.5557 180.429C23.2539 179.127 22.5216 177.362 22.5195 175.521V105.964C22.5216 104.123 23.2539 102.358 24.5558 101.056C25.8576 99.7539 27.6226 99.0216 29.4637 99.0195H158.873C160.714 99.0216 162.479 99.7539 163.781 101.056C165.083 102.358 165.815 104.123 165.817 105.964V175.521C165.815 177.362 165.083 179.127 163.781 180.429C162.479 181.731 160.714 182.463 158.873 182.465ZM29.4637 99.7408C27.8139 99.7427 26.2321 100.399 25.0655 101.566C23.8989 102.732 23.2427 104.314 23.2408 105.964V175.521C23.2427 177.171 23.8989 178.752 25.0655 179.919C26.2321 181.086 27.8139 181.742 29.4637 181.744H158.873C160.523 181.742 162.104 181.086 163.271 179.919C164.438 178.752 165.094 177.171 165.096 175.521V105.964C165.094 104.314 164.438 102.732 163.271 101.566C162.104 100.399 160.523 99.7427 158.873 99.7408H29.4637Z" fill="#3F3D56"/>
<path d="M144.135 144.134H41.3276C40.5001 144.133 39.6931 143.876 39.0168 143.4C38.3405 142.923 37.8279 142.249 37.5489 141.47L24.4028 104.588C24.1872 103.983 24.1199 103.335 24.2067 102.699C24.2935 102.062 24.5318 101.456 24.9015 100.931C25.2712 100.406 25.7616 99.9774 26.3314 99.6812C26.9011 99.385 27.5337 99.23 28.1759 99.2291L160.023 99.0264C160.657 99.0255 161.282 99.1749 161.847 99.4621C162.412 99.7494 162.901 100.166 163.273 100.679C163.646 101.192 163.892 101.785 163.991 102.411C164.09 103.037 164.04 103.678 163.843 104.28L163.858 104.287L147.822 141.703C147.514 142.425 147 143.04 146.344 143.472C145.689 143.905 144.92 144.135 144.135 144.134ZM160.029 99.7476L28.1769 99.9503C27.6502 99.951 27.1313 100.078 26.664 100.321C26.1967 100.564 25.7945 100.916 25.4912 101.346C25.188 101.777 24.9926 102.274 24.9214 102.796C24.8502 103.318 24.9053 103.849 25.0822 104.345L38.2283 141.227C38.4571 141.866 38.8775 142.419 39.4322 142.81C39.9869 143.202 40.6488 143.412 41.3276 143.413H144.135C144.779 143.413 145.409 143.225 145.947 142.87C146.485 142.516 146.906 142.011 147.159 141.419L163.053 104.334C163.268 103.833 163.354 103.288 163.306 102.745C163.258 102.203 163.075 101.681 162.776 101.227C162.476 100.772 162.068 100.399 161.589 100.141C161.109 99.8828 160.573 99.7477 160.029 99.7476Z" fill="#3F3D56"/>
<path d="M66.6752 172.426H34.6446C34.1753 172.426 33.7252 172.24 33.3933 171.908C33.0614 171.576 32.875 171.126 32.875 170.657C32.875 170.187 33.0614 169.737 33.3933 169.406C33.7252 169.074 34.1753 168.887 34.6446 168.887H66.6752C67.1446 168.887 67.5947 169.074 67.9265 169.406C68.2584 169.737 68.4448 170.187 68.4448 170.657C68.4448 171.126 68.2584 171.576 67.9265 171.908C67.5947 172.24 67.1446 172.426 66.6752 172.426Z" fill="white"/>
<path d="M103.263 143.774C103.263 146.186 102.305 148.5 100.599 150.205C98.8932 151.911 96.5798 152.869 94.1676 152.869C91.7553 152.869 89.4419 151.911 87.7362 150.205C86.0305 148.5 85.0723 146.186 85.0723 143.774" fill="#3F3D56"/>
<path d="M45.7262 39.1997C47.5188 39.1997 48.9719 37.7465 48.9719 35.954C48.9719 34.1614 47.5188 32.7083 45.7262 32.7083C43.9336 32.7083 42.4805 34.1614 42.4805 35.954C42.4805 37.7465 43.9336 39.1997 45.7262 39.1997Z" fill="#F0F0F0"/>
<path d="M3.53088 117.097C5.32344 117.097 6.7766 115.644 6.7766 113.851C6.7766 112.059 5.32344 110.605 3.53088 110.605C1.73831 110.605 0.285156 112.059 0.285156 113.851C0.285156 115.644 1.73831 117.097 3.53088 117.097Z" fill="#F0F0F0"/>
<path d="M165.818 56.1494C167.611 56.1494 169.064 54.6962 169.064 52.9037C169.064 51.1111 167.611 49.658 165.818 49.658C164.025 49.658 162.572 51.1111 162.572 52.9037C162.572 54.6962 164.025 56.1494 165.818 56.1494Z" fill="#F0F0F0"/>
<path d="M221.376 190.65H159.601C159.487 190.65 159.378 190.605 159.298 190.525C159.217 190.444 159.172 190.335 159.172 190.221C159.172 190.107 159.217 189.998 159.298 189.917C159.378 189.837 159.487 189.792 159.601 189.792H221.376C221.49 189.792 221.599 189.837 221.679 189.918C221.759 189.998 221.804 190.107 221.804 190.221C221.804 190.335 221.759 190.444 221.679 190.524C221.599 190.605 221.49 190.65 221.376 190.65Z" fill="#CACACA"/>
</g>
<defs>
<clipPath id="clip0_345_2138">
<rect width="221.519" height="190.65" fill="white" transform="translate(0.285156)"/>
</clipPath>
</defs>
</svg>
